<?xml version="1.0" encoding="utf-8"?>
<!-- Generator: Adobe Illustrator 17.0.0, SVG Export Plug-In . SVG Version: 6.00 Build 0)  -->
<!DOCTYPE svg PUBLIC "-//W3C//DTD SVG 1.1//EN" "http://www.w3.org/Graphics/SVG/1.1/DTD/svg11.dtd">
<svg version="1.1" id="Camada_1" xmlns="http://www.w3.org/2000/svg" xmlns:xlink="http://www.w3.org/1999/xlink" x="0px" y="0px"
	 width="22px" height="22px" viewBox="0 0 22 22" enable-background="new 0 0 22 22" xml:space="preserve">
<g>
	<path d="M11,2.5c4.687,0,8.5,3.813,8.5,8.5s-3.813,8.5-8.5,8.5S2.5,15.687,2.5,11S6.313,2.5,11,2.5 M11,1C5.477,1,1,5.477,1,11
		s4.477,10,10,10s10-4.477,10-10S16.523,1,11,1L11,1z"/>
</g>
<polygon points="13.652,7.818 12.591,6.757 9.409,9.939 8.348,11 12.591,15.243 13.652,14.182 10.47,11 "/>
</svg>
