<?xml version="1.0" standalone="no"?>
<!DOCTYPE svg PUBLIC "-//W3C//DTD SVG 1.1//EN" "http://www.w3.org/Graphics/SVG/1.1/DTD/svg11.dtd" >
<svg xmlns="http://www.w3.org/2000/svg">
<metadata>
Created by FontPrep 20130207 at Sun Apr 17 17:32:37 2016
 By Alexandre de Farias
</metadata>
<defs>
<font id="d3ca5dde60f88db606021eeba2499c02" horiz-adv-x='1024' >
  <font-face 
    font-family="olivier"
    font-weight="400"
    font-stretch="normal"
    units-per-em="2048"
    panose-1="0 0 0 0 0 0 0 0 0 0"
    ascent="1536"
    descent="-512"
    x-height="829"
    cap-height="1413"
    bbox="-85.9104 -821.522 1998.1 1832.92"
    underline-thickness="102"
    underline-position="-102"
    unicode-range="U+0020-FB02"
  />
<missing-glyph horiz-adv-x="575" 
 />
    <glyph glyph-name=".notdef" horiz-adv-x="575" 
 />
    <glyph glyph-name=".null" horiz-adv-x="0" 
 />
    <glyph glyph-name="nonmarkingreturn" horiz-adv-x="681" 
 />
    <glyph glyph-name="space" unicode=" " horiz-adv-x="575" 
 />
    <glyph glyph-name="exclam" unicode="!" horiz-adv-x="471" 
d="M124.5 149.5q20.5 20.5 57.5 12.5t70 -40t29 -73q0 -47 -40 -55t-89 14q-29 8 -41.5 36t-9.5 56.5t23.5 49zM313 1059q0 -43 27.5 -222.5t-64.5 -275.5q-8 -6 -41 -68.5t-63 3.5q-31 51 -38 110.5t-12 129.5t-30 279.5t31 399.5q22 52 88.5 20t105.5 -83q33 -48 23 -111
t-18.5 -101t-8.5 -81z" />
    <glyph glyph-name="quotedbl" unicode="&#x22;" horiz-adv-x="724" 
d="M216 1115q-92 63 -103 226q-6 74 4 146q38 56 98 21q50 -26 68 -87q47 -145 0 -293q-8 -29 -27 -28q-18 0 -40 15zM344 1425q0 108 47 115q42 8 95 -44q54 -53 67 -99q8 -69 -14 -157t-61 -123t-94 68q-40 75 -40 240z" />
    <glyph glyph-name="numbersign" unicode="#" horiz-adv-x="1167" 
d="M674 488v135q0 36 2 61q-35 0 -65 -12t-64 -21q-8 -3 -8 -107t-7 -138q29 7 68 27t70 26q4 3 4 29zM549 1184q0 -154 -12 -328q53 0 105 20t52 27q-20 199 28 239t92 -1q44 -40 49 -78q10 -86 22 -119q29 -4 89 16t124 22q64 3 71 -3q1 -29 -37 -57t-88 -56
q-50 -26 -91 -50q-42 -24 -48 -41t-6 -109l2 -127q27 0 69 2t78 1t56 -7t6 -23q-31 -49 -119 -99q-33 -19 -55 -33t-21 -20q4 -91 -25 -212q-54 -227 -112 -283q-58 -51 -81 3t-18 121t10 135t-9 132q-6 -2 -63 -16t-113 -50q-2 -14 -10 -84t-38 -111q-30 -42 -59 -35
t-43 40q-26 62 -28 105t0 48q-184 -68 -243 -70q-58 -1 -72 15q-24 29 9 76q32 47 148 92q20 8 40 18t53 23q32 12 45 22q13 11 10 24q-15 65 -15 233q-30 -2 -82 -27q-51 -23 -77 -33t-50 -4q-59 16 -66 54t40 69q72 42 256 129q19 4 20 61q2 58 3 94q1 37 6 65t11 97
q27 314 117 336q25 7 40 -25q30 -64 30 -218z" />
    <glyph glyph-name="dollar" unicode="$" horiz-adv-x="1087" 
d="M444 1022q-100 45 -122 -76q-10 -55 28 -90t88 -49q8 49 6 106t0 109zM434 513q0 31 -8 36q-53 23 -112 74q-131 115 -163 270q-17 82 11 168q54 122 208 146q44 7 89 10q-10 72 -2 129t15 106q15 105 100 67q19 -9 32 -12q51 -51 51 -311q0 -8 58 -25t96 -52
q39 -36 37 -77q-90 -55 -178 -34q-6 -27 -6 -65t2 -80t4 -82t-2 -70q0 -3 30 -19q268 -136 353 -352q29 -74 27 -158t-30 -140t-69 -96t-89 -65t-93 -39t-79 -19t-44 -7q-4 -8 -4 -56q0 -120 -48 -210q-28 -50 -83 -64q-31 -10 -50 12q-34 43 -44 120q-11 77 -18 148t-13 70
q-64 10 -142 47q-167 79 -225 194q-29 56 6 105q20 12 55 1t132 -54t180 -55q16 408 16 439zM827 90q18 9 -14 -3zM684 59q51 4 85 15q33 10 72 21t57 37q32 49 -35 126q-67 76 -183 150q-2 -48 1 -94q13 -190 3 -255z" />
    <glyph glyph-name="percent" unicode="%" horiz-adv-x="1069" 
d="M442 1346q88 -31 128 -99q78 -133 15 -312q-64 -179 -199 -230q-67 -25 -136 12q-155 71 -141 276q4 57 12 109q16 105 108 177q92 73 199 34q10 9 8 19t6 14zM901 892q0 -73 -27 -118q-101 -155 -507 -490q-91 -76 -147 -132t-80 -57q-43 -2 -21 90q10 42 42 113
t187 269q46 60 122 130t114 130q40 75 95 135q100 110 175 123q0 -6 24 -63t23 -130zM694 245q0 -52 23 -93q39 -16 90 -10t80 34q19 39 -131 129q-31 18 -39 25q-23 -33 -23 -85zM1042 330q41 -50 26 -102q-28 -98 -156 -172q-128 -75 -210 -17q-53 37 -82 100
q-30 63 -33 136q-7 162 121 197q65 17 173 -32q2 -4 22 -14q110 -55 139 -96zM405 852l-8 -10q-8 -8 -3 -2t11 12zM269 860q63 -102 144 0h-1q34 47 46 115q36 193 -57 245q-31 17 -77 7q-88 -19 -97 -152q-9 -132 42 -215z" />
    <glyph glyph-name="ampersand" unicode="&#x26;" horiz-adv-x="1107" 
d="M487 1035q82 104 52 173q-38 89 -131 85q-92 -4 -112 -57q-37 -93 19 -229q25 -58 50 -87q18 10 54 42t68 73zM356 567q-94 -107 -128 -162q-74 -119 -33 -176q70 -97 211 -19q57 32 103 82t58 93q7 20 -99 107q-40 33 -75 55t-37 20zM689 162q-76 -89 -173 -132
q-168 -73 -282 -37t-169 134q-139 245 55 465q52 59 101 110q6 6 -46 68t-95 146q-43 86 -45 148t7 122q18 119 105 207q72 69 218 79q145 10 247 -58q55 -36 81 -100q79 -194 -113 -449q-31 -39 -54 -65q-24 -26 -30 -37t12 -38t49 -55t66 -57q35 -28 57 -46
q145 290 257 359q35 20 79 9t76 -44t32 -66q0 -13 -83 -127t-115 -158t-54 -76l-30 -40t39 -47t125 -74q81 -35 118 -37q33 -6 41 -33t-8 -55t-53 -48q-37 -19 -90 -10q-118 20 -203 84q-25 17 -57 36q-8 0 -22 -23t-43 -55z" />
    <glyph glyph-name="quotesingle" unicode="'" horiz-adv-x="335" 
d="M51 1163q-18 86 3 174q22 88 46 174q27 31 59 29q63 -4 101 -76q54 -98 3 -203q-13 -30 -35 -59q-22 -28 -46 -62t-46 -43q-41 -17 -66 22q-13 19 -19 44z" />
    <glyph glyph-name="parenleft" unicode="(" horiz-adv-x="499" 
d="M150 183q-169 372 -59 757q32 116 82 211q51 94 69 129q82 160 167 234q55 50 62 10q0 -49 -27 -126q-28 -77 -64 -178q-102 -283 -129 -483t42 -513q39 -187 40 -229q2 -79 -53 -22q-69 71 -130 210z" />
    <glyph glyph-name="parenright" unicode=")" horiz-adv-x="501" 
d="M291 535q0 296 -35 534q-9 40 -65 169.5t-87 218t-4 95.5q70 12 193.5 -159t180.5 -447.5t11 -539t-122 -363t-119 -96.5q-26 11 -18 107.5t34 257.5t31 223z" />
    <glyph glyph-name="asterisk" unicode="*" 
d="M879 477q-24 -61 -200 51q-36 23 -46 29q-84 56 -134 -16q-24 -33 -44 -79q-21 -46 -61 -100t-68 -69t-38 7q-20 40 -2 159t40 184q-12 2 -98 -4t-120 9t-40 38t11 58t63 54t107 21q62 2 89 6q-6 25 -30 42t-46 35q-57 47 -46 89q24 89 110 23q20 -16 52 -40t78 -29
q85 -9 154 43q33 24 58 46t42 33q17 12 29 -3t-26 -90t-45 -108q47 -8 140 6t128 9q14 -42 -102 -84t-156 -66q-26 -17 92 -127t109 -127z" />
    <glyph glyph-name="plus" unicode="+" horiz-adv-x="960" 
d="M639 725q0 -6 43 -1t147 15q53 3 82 -64q13 -27 21 -53t20 -34q-6 -27 -47 -39q-41 -11 -93 -19t-103 -14t-78 -20q-4 -25 0 -98q8 -157 -53 -246q-12 -16 -48 -10t-74 34q-118 80 -128 215q-5 65 -2 105q-40 -11 -131 0q-91 12 -133 27t-42 42q4 73 83 107q53 22 116 22
t85 -1t22 1q-8 16 0 132q7 117 26 163q20 47 44 55t63 -34t73 -68t58 -52q49 -50 49 -165z" />
    <glyph glyph-name="comma" unicode="," horiz-adv-x="604" 
d="M279 147q79 72 152 20t29 -162q-28 -70 -93 -141q-111 -122 -184 -139t-75 31q-2 25 32 73t48 93t24 85q9 40 21 75t46 65z" />
    <glyph glyph-name="hyphen" unicode="-" horiz-adv-x="980" 
d="M416 713q197 16 265 0q68 -15 161 -60q53 -32 39 -84q-14 -53 -70 -53q-220 -19 -410 -41q-63 -4 -107 10t-104 39q-48 32 -39 83t39 71q29 19 226 35z" />
    <glyph glyph-name="period" unicode="." horiz-adv-x="538" 
d="M326 274q61 0 112.5 -79t-57.5 -154t-168 -32t-69 105t11 86.5t53 38t66 19.5t52 16z" />
    <glyph glyph-name="slash" unicode="/" horiz-adv-x="647" 
d="M463 735q-44 -498 -161 -666q-30 -41 -74 -53t-69 22q-24 34 -27 120q-4 113 74 399q15 59 39 169t91 288q66 178 100 251q78 163 133 140q27 -9 19 -69t-59 -249q-52 -190 -66 -352z" />
    <glyph glyph-name="zero" unicode="0" horiz-adv-x="1007" 
d="M669 408q71 293 -5 528q-32 99 -91 150q-31 28 -67 29q-104 3 -172 -247q-73 -222 -60 -450q8 -148 69 -223q29 -37 85 -43t104 28q96 66 137 228zM733 1260q0 -56 24 -88q23 -32 55 -58t67 -60q70 -65 92 -205q44 -273 -98 -547q-97 -188 -251 -264q-82 -42 -180 -36
q-183 11 -313 201t-121 401q8 211 101 377q94 167 221 233q89 42 197 30q44 -5 92 -6t114 22z" />
    <glyph glyph-name="one" unicode="1" horiz-adv-x="800" 
d="M696 611.5q0 -125.5 3 -197.5t8.5 -130.5t-1 -120t-32 -106.5t-84.5 -39q-114 12 -155.5 99t-37.5 241q10 150 23.5 307.5t5.5 309.5q-73 -25 -137 -123t-83 -124t-45 -78t-54.5 -101t-59.5 -79t-61 -5q-45 34 77.5 230t182 271.5t119 150.5t89.5 130q29 56 52.5 81.5
t60.5 35.5q137 -40 148 -92q7 -34 -17.5 -120.5t-20 -160t14.5 -131.5q4 -123 4 -248.5z" />
    <glyph glyph-name="two" unicode="2" horiz-adv-x="980" 
d="M29 932q0 33 6 65q41 142 164 284t278 142q88 0 173 -53t93 -133q80 -377 -139 -682t-233 -328q48 -17 254 -28t225 -14q55 -9 85 -20.5t30 -43.5q0 -76 -101.5 -110t-250.5 -19t-195.5 30t-81.5 28q-79 29 -114.5 68.5t12.5 106.5q48 66 78 154t56 165t103.5 275
t32.5 365q-16 82 -60.5 98t-93.5 -13.5t-104.5 -108.5t-51.5 -151t35 -91q0 -43 -41.5 -70t-72.5 -29t-49.5 12.5t-27.5 41t-9 59.5z" />
    <glyph glyph-name="three" unicode="3" horiz-adv-x="950" 
d="M221 278q107 -85 251 -40t171 189q12 61 -6 125q-19 64 -65 108t-96 51q-50 8 -101 13t-94 19t-68 64q-20 31 4 70t131 125q108 85 125 156q10 42 -20 91q-15 33 -88 16t-115 -65q-10 -10 -26 -32q-71 -95 -115 -47q-56 63 23 158t167 134q175 68 293 -3q53 -32 80 -89
q67 -141 -74 -344q-74 -103 -145 -150q128 4 255 -59q222 -111 238 -325q6 -77 -18 -147t-66 -116q-125 -136 -352 -180q-209 -32 -372 145q-88 98 -105 202q-8 50 6 89q13 39 27 34t33 -36t48 -76t74 -80z" />
    <glyph glyph-name="four" unicode="4" horiz-adv-x="880" 
d="M313 844q0 42 -5 98t-5 102q-82 -110 -149 -213q24 -8 52 -20t52 -16t39 2q16 5 16 47zM313 515q0 45 -1 65q-2 33 -39 43q-19 4 -56 16q-121 18 -203 96q-37 37 -23 88q24 95 123 208q42 48 70 88q28 39 76 101q110 138 197 191q47 29 80 16q12 -29 -12 -54
q-23 -25 -39 -41t-23 -42q51 -84 89 -395q7 -66 7 -86q0 -2 25 0q41 3 140 8q165 8 165 -39q0 -59 -123 -104t-197 -45q-4 4 6 -112q42 -516 -26 -529q-50 -8 -96 15t-67 42q-58 47 -72 257q-4 56 -2 112q1 56 1 101z" />
    <glyph glyph-name="five" unicode="5" horiz-adv-x="1103" 
d="M373.5 169q78.5 -3 149.5 26q189 77 231 331q4 59 -32 86t-88 30t-108.5 -13.5t-93.5 -42.5q-167 -158 -274 -49q-124 110 -101 366q8 59 22.5 128t22.5 128q-138 73 -36 147q70 51 148.5 37t125.5 -26.5t97 -18.5t135 4.5t167 13.5t143.5 -13.5t69.5 -77.5
q7 -79 -295.5 -94t-332.5 -17q8 -109 5 -217.5t5 -224.5q58 91 245.5 192.5t289.5 14.5t133 -181q54 -165 29.5 -276.5t-111.5 -214.5q-147 -182 -375.5 -205t-357 34t-119.5 118q4 33 49 32.5t111.5 -7.5t145 -10z" />
    <glyph glyph-name="six" unicode="6" horiz-adv-x="1157" 
d="M432 399q-6 -17 57 -75t120 -84q110 -52 200 -25q70 18 88 86t-4 133q-21 66 -78 101q-118 73 -266 -15q-70 -41 -117 -121zM309 3q0 -65 -5 -80t-25 -15q-10 -4 -27 19q-36 55 -44 142q-7 88 3 156q0 10 -20 35q-111 146 -162 457q-48 232 32 471q33 98 104 189t139 119
t110 -7q0 -27 -30 -52q-30 -26 -52 -45q-23 -19 -43 -49q-66 -196 -66 -346q0 -149 19 -259t49 -135q12 -11 16 -11q16 48 149 152q32 26 54 40q300 150 541 -135q33 -41 47 -115q32 -170 -73 -327q-54 -81 -168 -141t-212 -54t-192 49q-66 37 -93 60t-34 8
q-17 -61 -17 -126z" />
    <glyph glyph-name="seven" unicode="7" horiz-adv-x="1200" 
d="M937 627q-48 0 -52 -17q-5 -29 -19 -88t-40 -172t-50 -160q-46 -112 -62 -144q-36 -69 -81 -62q-100 14 -19 582q8 56 13 79q-61 16 -215 23q-154 8 -235 15t-87 32q-4 14 28 36t116 53t172 27q18 -4 83 -4q65 -1 108 5q44 6 44 10q25 120 30 230t19 210q-80 -2 -164 3
t-168 8q-198 7 -331 -29q-50 83 52 133q122 61 416 61q145 0 228 -12q82 -12 111 -26t91 -78q62 -65 66 -115q-9 -150 -47 -422q0 -15 102 -18q102 -4 151 -33q50 -29 54 -62q0 -35 -144 -48q-34 -3 -78 -10t-92 -7z" />
    <glyph glyph-name="eight" unicode="8" horiz-adv-x="851" 
d="M461 590q-20 -48 -47 -110t-67 -161t-24 -116q27 -32 146 18q119 51 139 111q21 72 -89 197q-29 34 -58 61zM264 1423q0 29 -106 11q-25 -4 -37 -11q30 137 190 142q133 4 294 -84q150 -83 173 -185q30 -134 -194 -477q-47 -72 -60 -104q0 -4 39 -43q39 -40 86 -100
q308 -396 -82 -547q-95 -35 -232 -19q-138 16 -165 86q-57 111 96 481q63 152 70 170q0 2 -39 24t-95 72q-161 145 -120 312q20 100 158 238q25 25 24 34zM379 862q9 28 39 104t42 112t20 73q9 37 22 87t-1 72q-15 23 -42 30t-73 -12t-91 -53q-113 -86 -117 -155
q0 -124 125 -214q37 -26 76 -44z" />
    <glyph glyph-name="nine" unicode="9" horiz-adv-x="1107" 
d="M300 911q55 -127 153 -149q49 -12 90 16q70 47 83 113q13 65 -51 92q-27 12 -35 34q-8 21 -12 47t-9 54q-18 100 -210 127q-67 -67 -45 -211q10 -63 36 -123zM534 238q173 0 257 165q35 72 39 156q5 84 -19 158q-15 37 -33 75t-59 52q-11 -10 -21 -36t-25 -56
q-92 -187 -325 -74q-98 43 -168 116q-145 152 -80 358q33 103 140 210q86 94 258 50q74 -19 140 -67q66 -47 94 -101q57 -112 -31 -230q-17 -25 -21 -31q8 -4 77 -27t133 -67q64 -43 86 -82q90 -164 79 -344q-16 -104 -49 -179t-99 -134q-195 -232 -631 -78
q-124 44 -195 118t-36 117q18 25 61 17q42 -8 106 -26t146 -40q82 -20 176 -20z" />
    <glyph glyph-name="colon" unicode=":" horiz-adv-x="675" 
d="M485 80q-120 -133 -241 -71q-40 22 -66 62q-48 75 -23 143q25 73 105 88t99 -18q18 -34 -15 -102q4 -8 55 -12t75 -26q23 -23 11 -64zM510 974q24 -28 13 -67q-39 -139 -137 -145q-34 -2 -95 30t-87 54q-55 48 -57 121q0 55 106 69t169 -10q64 -24 88 -52z" />
    <glyph glyph-name="semicolon" unicode=";" horiz-adv-x="647" 
d="M279 147q79 72 152 20t29 -162q-28 -70 -93 -141q-111 -122 -184 -139t-75 31q-2 25 32 73t48 93t24 85q9 40 21 75t46 65zM221 895q53 92 109 107t121 -37q25 -17 39 -61t8 -90t-42 -85t-114 -47q-35 -4 -68 13q-70 36 -76 117q-4 40 23 83z" />
    <glyph glyph-name="less" unicode="&#x3c;" horiz-adv-x="657" 
d="M550 185q-142 21 -280 122q-171 125 -177 267q-3 73 65 135q35 31 80 75q182 176 307 129q126 -57 -30 -202q-44 -41 -127 -106t-103 -85q23 -14 63 -36q188 -105 252 -169q10 -14 22 -31q46 -63 17 -85q-29 -23 -89 -14z" />
    <glyph glyph-name="equal" unicode="=" 
d="M250 610q-117 0 -135 28q-10 13 -2 38q0 53 45 84t112 31q199 36 506 -30q108 -23 125 -40q16 -16 4 -45q-12 -28 -54 -52q-103 -58 -288 -14h-313zM946 430q0 -37 -217 -70q-217 -32 -338 -32t-188 12q-33 17 -56 68q-22 51 11 67q81 60 272 67q190 8 353 -29t163 -83z
" />
    <glyph glyph-name="greater" unicode="&#x3e;" horiz-adv-x="724" 
d="M271 176q-45 8 -49 64t170 249q44 49 79 85t41 44q-14 8 -51 26q-186 93 -237 159t42 115q120 66 369 -183q167 -167 -24 -339q-98 -87 -183 -136q-86 -48 -111 -68t-46 -16z" />
    <glyph glyph-name="question" unicode="?" horiz-adv-x="843" 
d="M401 122q11 30 48 37t67 -11t44 -44q15 -28 9 -56t-47 -41q-42 -13 -72 7q-68 45 -49 108zM352 666q0 74 13 155q2 14 23 33q22 18 84 67t113 122t71 132q20 58 6 140q-7 62 -95 28q-65 -23 -165 -100t-126 -123q-12 -18 -24 -56q-53 -167 -127 -95q-53 47 -59 97t22 116
q61 124 171 227t249 127q138 23 228 -88q40 -49 58 -115t8 -131q-9 -65 -119 -220t-161 -185q-45 -31 7 -127q13 -26 19 -50t14 -63q39 -170 -89 -170q-37 2 -60 28q-61 67 -61 251z" />
    <glyph glyph-name="at" unicode="@" horiz-adv-x="1669" 
 />
    <glyph glyph-name="A" unicode="A" horiz-adv-x="1265" 
d="M471 835v-208q8 -2 41 -2q86 0 212 8t126 20q-14 103 -130 352q-72 150 -133 207q-97 88 -113 -250q-3 -65 -3 -127zM1000 116q-26 182 -91 335q-8 16 -80 6q-73 -9 -145 -9q-98 1 -162 -9q-65 -10 -65 -15q-2 -27 -5 -69q-18 -255 -122 -326q-33 -23 -80 -19
q-31 2 -44 62q-27 122 -23 235q3 113 3 133q-112 14 -152 39q-79 50 40 99q55 23 135 36q8 74 18 185q42 468 195 598q69 53 204 -24q134 -78 218 -214q41 -74 105 -262q64 -187 85 -231q4 -8 33 -6t63 -1q90 -5 93 -60q4 -73 -138 -120q-27 -8 -26 -10q65 -335 77 -467
q25 -264 -36 -283q-42 -7 -64 50q-10 27 -10 96t-26 251z" />
    <glyph glyph-name="B" unicode="B" horiz-adv-x="1005" 
d="M617 189q177 63 163 264q-8 141 -94 219q-41 37 -109 46t-141 -23q-73 -31 -90 -68q-40 -84 -33 -183q41 33 118 50t93 -9q14 -12 -1 -20q-68 -36 -100 -65q-32 -28 -47 -74q-32 -96 48 -136q82 -40 193 -1zM623 1245q-55 25 -129 -79q-73 -104 -115 -227
q-42 -124 -14 -120q117 11 196 111q78 100 92 202q15 101 -30 113zM590 801q174 8 270 -111q96 -118 99 -280t-76 -260q-57 -66 -135 -106t-159 -45t-157 29t-127 113q-10 14 -11 5t0 -29t-1 -47q-8 -107 -109 -72q-134 36 -151 246q-4 47 -8 73q-6 274 38 472
q44 197 90 314q47 117 111 189t128 115t140 41t141 -38t101 -99t21 -151q-33 -176 -205 -359z" />
    <glyph glyph-name="C" unicode="C" horiz-adv-x="1077" 
d="M1052 481l-1 1zM1052 481q1 -3 2 -5q-1 2 -2 5zM592 1124q-236 0 -291 -327t13 -504q49 -122 169 -130q121 -8 290 126q79 63 128 123t107 88q28 13 43 -17q11 -38 -35 -222q-10 -40 -17 -48q-109 -141 -213 -183q-206 -83 -406 19q-91 47 -165 128q-226 248 -171 656
q39 287 197 413t353 105q152 -16 276 -112q84 -60 109 -91q60 -75 -41 -79q-79 -3 -181 26q-101 29 -165 29z" />
    <glyph glyph-name="D" unicode="D" horiz-adv-x="1150" 
d="M454 76q-61 0 -61 30.5t37 43t140 46.5t175 109q141 152 119 465q-5 125 -68.5 266.5t-162.5 184.5q-111 46 -162 39t-76.5 -34.5t-23.5 -111.5t15.5 -443.5t-39 -530t-107.5 -177.5q-148 -7 -148 216.5t-4 340.5t6 490q0 25 -5 64.5t-9 83.5t-4 144.5t112 90.5
q45 -5 155 14t168 11q94 -12 214.5 -78t198.5 -144q174 -189 164 -457.5t-152 -443.5q-70 -86 -177.5 -145.5t-223.5 -69.5q-20 -4 -81 -4z" />
    <glyph glyph-name="E" unicode="E" horiz-adv-x="960" 
d="M737 909q-47 29 -94 2.5t-104 -80.5q59 4 141.5 34.5t56.5 43.5zM849 298q32 5 51 -9t10 -48t-59 -100t-165 -107t-227 -45t-234 62t-165.5 162t-26 198.5t79 198t137.5 160.5q-202 89 -193.5 266.5t111 287.5t175.5 149.5t136 35.5t128 -29.5t114 -58t71.5 -67
t6.5 -50.5t-121.5 27.5t-220.5 36.5q-115 -6 -161 -76t-52 -160t13 -137t45 -75.5t49.5 -40t29.5 -7.5q158 130 319.5 150t186.5 -104q-7 -122 -217.5 -167.5t-212.5 -48.5q-53 -39 -105.5 -88t-76.5 -122t-2 -128t106.5 -109.5t259.5 -16.5q31 4 67.5 18t73.5 25.5t69 16.5
z" />
    <glyph glyph-name="F" unicode="F" horiz-adv-x="872" 
d="M584 -6q-11 -68 -116 -26q-42 17 -82 51t-57 70q-43 91 -66 253q-22 162 -24 271q-1 52 -24 53q-69 0 -139 40q-69 40 2 70q35 6 72 12t73 15q10 59 21 131q10 72 28 150t67 149q93 135 247 163q154 27 355 -48q132 -49 159 -101q8 -29 -11 -41q-34 -21 -129 -8
q-96 13 -142 26t-54 15q-155 45 -231 -45t-71 -298q1 -46 -1 -69q80 7 169 -10q88 -15 132 -35t43 -46q-2 -26 -261 -59q-54 -7 -75 -9q-13 -67 22 -300q36 -233 93 -374z" />
    <glyph glyph-name="G" unicode="G" horiz-adv-x="1185" 
d="M874 76q-99 -60 -173 -152q-38 -47 -56 -106q-23 -119 40 -126t132 75q58 46 66 182q1 59 -9 127zM870 357q0 266 -20 423q-112 -314 -182 -429q-142 -233 -305 -286t-243 62q-65 93 -75 270q-10 178 25 294q122 404 371 624q85 74 161 92q129 30 214 -35
q84 -65 118 -153q14 -37 14 -64t-14 -29q-29 -6 -64 35t-96 99q-46 36 -131 -9t-145 -143q-126 -188 -173 -350q-48 -163 -40 -379q-1 -96 25 -129q49 -64 148 38t183 270q39 80 57 142q42 146 118 227q93 98 204 21q61 -43 73 -426q2 -127 -3 -190q25 14 71 47t89 37
t62 -16q32 -35 -58 -105q-38 -31 -85 -65t-84 -64q-4 -4 -7 -66q-8 -171 -79 -325q-41 -93 -109 -146q-126 -97 -270 -86q-65 6 -112 38t-58 92q-20 112 28 211q49 99 135 180q85 81 145 121t112 75v97z" />
    <glyph glyph-name="H" unicode="H" horiz-adv-x="1175" 
d="M795 819q0 39 -4.5 113t-8.5 151.5t-4 144t12 104.5t40 44t54.5 -12t47 -52t22.5 -71t20 -162t13 -239q32 -4 91 4t80.5 6t29.5 -16q13 -42 -47 -75.5t-95.5 -51t-52.5 -31.5q-2 -4 -1 -23.5t2 -47t3 -60.5t2 -59t1 -75t0 -109t-4 -122.5t-11 -111t-21.5 -72t-33.5 -6.5
q-43 35 -62.5 115.5t-29 177t-13.5 192.5t-12 164q-39 -4 -196.5 -1.5t-161.5 -21.5q-23 -136 -14 -380q7 -197 -3 -226t-32.5 -18.5t-57 44.5t-70.5 108q-72 150 -81 268q-4 45 -5.5 95t-5.5 91q-18 -2 -85 -9.5t-87 56.5q4 62 38 78t132 35l-3 304q-3 304 48 345
q93 82 146 -45t69.5 -274.5t21.5 -215t7 -88.5q65 11 160.5 13t128.5 6t33 16z" />
    <glyph glyph-name="I" unicode="I" horiz-adv-x="626" 
d="M176 1413q96 -6 150 -75q54 -70 82 -164q27 -94 39 -260q20 -287 -32 -485q-81 -314 -141 -296q-64 14 -87 307q-7 111 -11 221q-4 111 -8 145t-8 97q-18 282 6 479q4 33 10 31z" />
    <glyph glyph-name="J" unicode="J" horiz-adv-x="927" 
d="M122 545q30 0 31 -59q-1 -26 -7 -58q-23 -130 3 -158q25 -29 81 -46t122 -11q162 15 217 164q33 121 33 266q0 294 -42 529q-18 109 -38 145q-20 35 -32 57t-14 40q-1 19 31 51t70 23q96 -23 177 -271q23 -72 43 -169q21 -98 39 -189q71 -349 8 -548t-240 -276
q-284 -135 -528 69q-49 43 -60 117q-20 148 47 271q29 53 59 53z" />
    <glyph glyph-name="K" unicode="K" horiz-adv-x="1067" 
d="M59 654q-1 54 27 111t32 89t8 100q13 307 44 400q16 56 50 76t69 15t61 -32t27 -69q5 -106 6 -200q2 -92 3 -142t1 -66q50 35 105 97q211 240 473 345q66 21 91 -10q29 -37 -26 -89t-179 -166q-124 -113 -194 -180q-251 -240 -243 -304q6 -53 32 -95t55 -86
q87 -138 215 -141q44 0 98 34t108 29t91 -34q36 -29 45 -68t-16 -65q-139 -146 -277 -127q-114 14 -219 118t-198 255q-4 6 -6 -28t-5 -89q-14 -248 -72 -338q-23 -37 -56 -35q-76 5 -100 296q-9 108 -13 202t-8 100q-29 43 -29 97z" />
    <glyph glyph-name="L" unicode="L" horiz-adv-x="833" 
d="M510 844q129 133 125 284q-2 80 -74 166q-6 6 -11 -10q-19 -62 -27 -184q-7 -121 -13 -256zM193 96q-83 28 -115 -2q-18 -16 -7 -52q20 -67 73 -68q52 -1 106 94q-23 16 -57 28zM522 380q0 -151 -22 -208q72 -43 131 -87q131 -98 276 -117q84 -11 207 9q31 5 33 -17
t-29 -52q-84 -83 -254 -93q-169 -9 -334 81q-74 39 -137 92q-55 -82 -132 -120t-161 -17t-135 120q-27 68 -7 127q18 58 66 98t116 50t139 -21q11 -5 17 56q7 61 7 107t-6 91q-67 -35 -121 -45q-109 -21 -110 17q-4 18 16 36t89 66t116 104q2 3 3 55q2 125 12 307
q19 367 91 421q51 45 119 36q68 -10 126 -58t97 -128t36 -192t-42 -207q-71 -170 -166 -258q-37 -35 -37 -45q-4 -57 -4 -208z" />
    <glyph glyph-name="M" unicode="M" horiz-adv-x="1748" 
d="M1959 -27q26 0 35 -20q19 -42 -50 -83t-160 -34q-201 16 -336.5 195t-151.5 444.5t-16 412t-2 230.5q-158 -21 -214.5 -380.5t-74.5 -512.5t-29 -177t-40 -40t-86.5 -21t-102.5 44t-71.5 138t-30.5 179q-19 504 -103 879q-44 -31 -86 -91.5t-75 -262t-44.5 -478
t-13.5 -311.5t-31.5 -54.5t-68.5 -21.5t-78 14.5t-63 64.5q-69 140 -12 478q44 266 93 445t150 310t260 75q181 -66 201 -437.5t21 -466t3 -149.5q16 43 38 118t49.5 166t61.5 188t101 243.5t172 219.5t232 -44q100 -95 151 -508t78 -527t67 -154t86 -53.5t80.5 -15.5
t60.5 -2z" />
    <glyph glyph-name="N" unicode="N" horiz-adv-x="1120" 
d="M274 1143q-43 -216 38 -796q24 -168 -14 -266q-17 -44 -52 -57t-94 39q-174 137 -13 1086q13 82 43 147q29 64 52 94q84 104 168 -94q52 -122 83 -369q13 -97 25 -193q27 -209 102 -341q43 -74 115 -129q108 63 81 499q-13 206 11 401t47 254q16 45 25 -45
q50 -528 92 -681q56 -122 47 -326t-74 -298q-67 -104 -160 -63t-176 161q-143 208 -225 505t-121 472z" />
    <glyph glyph-name="O" unicode="O" horiz-adv-x="1087" 
d="M539 1317q-103 40 -201 -172q-22 -49 -39 -82q-16 -33 -38 -124q-49 -203 -47 -442t109 -321q56 -43 140 -14t129 85q86 107 117 296t21 310q-20 224 -102 365q-40 67 -89 99zM974 876q46 -310 -66 -564q-50 -112 -99 -174t-120 -102q-144 -82 -301 -35q-77 24 -142 83
q-224 193 -229 564q-1 161 40 318t105 281q27 55 89 105q134 109 299 100q83 -4 145 -50t89 -96t66 -110q100 -158 124 -320z" />
    <glyph glyph-name="P" unicode="P" horiz-adv-x="813" 
d="M672 1311q-141 4 -203.5 -101.5t-79 -174t-14.5 -113.5q270 135 296 236.5t1 152.5zM356 651q-10 -286 13 -397q22 -111 28 -148.5t-4 -76.5q-29 -46 -103 -32.5t-124 46.5q-103 295 -45 842q8 145 108 351t241.5 210t227.5 -41t113 -114.5t4.5 -188t-175.5 -277
t-284 -174.5z" />
    <glyph glyph-name="Q" unicode="Q" horiz-adv-x="1169" 
d="M323 1070q-152 -399 -77 -635q55 -177 282 -214q74 -11 99 11q46 42 -16 145q-62 104 -108 160q-45 55 -46 59q-6 31 14 41t53 6q103 -12 226 -88q31 -18 43 -31q40 84 54 199q28 242 -24 379q-69 184 -264 229q-106 22 -192 -161q-25 -50 -44 -100zM743 77
q-165 -73 -341 12t-276 315t-83 432q28 341 158 495q55 66 133 85q168 41 332 8q163 -33 241 -138q110 -138 145 -368q21 -150 -25 -387q-15 -89 -27 -123q-2 -4 23 -35q24 -31 90 -124t89 -145q24 -50 -2 -72q-58 -47 -193 28q-65 36 -122 108q-4 0 -41 -32t-101 -59z" />
    <glyph glyph-name="R" unicode="R" horiz-adv-x="1097" 
d="M623 1268q-157 -26 -255 -259q-28 -65 -53 -128q65 -24 174 46q183 117 177 255q-2 47 -43 86zM289 709q-41 0 -41 -308q-2 -85 7 -159t12 -130t-6 -88t-45 -30q-67 4 -123 68t-70 169t-14 261q2 332 119 605q60 140 165 232q59 53 133 80t144 22q158 -11 227 -155
q71 -157 -61 -298q-56 -60 -132 -100t-143 -53q88 -31 211 -135t223 -213q99 -110 130 -158t57 -120t17 -114q-16 -76 -85 -86q-29 -3 -43 5q-70 31 -122 91q-98 113 -169 235q-72 122 -128 198q-133 178 -263 181z" />
    <glyph glyph-name="S" unicode="S" horiz-adv-x="1103" 
d="M900 1187q-40 13 -75 8t-75.5 -10t-123.5 -38.5t-159 -141.5t-44 -167.5t169 -118.5q70 -29 146.5 -50.5t187 -84.5t137.5 -262q22 -162 -133.5 -251t-327.5 -90t-280.5 40.5t-172 95t-80.5 103.5t7 64t56 3t121.5 -44t227 -37t314.5 91q37 20 44 58t-34 108t-219 108
q-82 18 -259.5 65t-197.5 273q-8 120 144 298.5t338 249t284 -74.5q35 -53 77 -86.5t73.5 -56t45 -41t-8.5 -41.5t-48 -17.5t-60 20t-74 27.5z" />
    <glyph glyph-name="T" unicode="T" horiz-adv-x="843" 
d="M985 1356q0 -41 -128 -82t-259 -41q48 -581 -4 -959q-31 -219 -96 -229q-38 -3 -79 145q-51 197 -87 568q-12 87 -15 229q-4 143 -8 238q-2 12 -21 15t-51 6q-94 9 -151 48q-88 55 31 87t371 32l117 -4q266 0 352 -32q28 -9 28 -21z" />
    <glyph glyph-name="U" unicode="U" horiz-adv-x="993" 
d="M924 824q6 -126 6 -222t-28 -232t-68 -216q-39 -80 -106 -134q-66 -54 -186 -53t-212 61q-313 202 -286 879q10 238 47 395q15 67 26 78q40 50 78 -21q43 -87 78 -337q34 -251 59 -371q59 -279 135 -389q78 -109 150 -15q59 74 75 159q16 84 52 319t44 287q26 164 69 243
q24 45 52 43q30 4 25 -102q-2 -45 -6 -95t-7 -100q-3 -51 3 -177z" />
    <glyph glyph-name="V" unicode="V" horiz-adv-x="894" 
d="M795 984q0 -82 12 -136t8 -138q-12 -244 -124 -522q-64 -158 -107 -182q-58 -26 -134 93q-49 76 -105 209q-121 290 -188 635q-31 159 -50 273q-19 115 -28 163t17 68q56 40 147 -26q40 -29 52 -65q43 -104 60 -214t31 -230t36 -250q23 -130 78 -279q8 27 25 114t57 283
t89 350q48 154 86 222t77 63q6 -3 -17 -176q-22 -173 -22 -255z" />
    <glyph glyph-name="W" unicode="W" horiz-adv-x="1716" 
d="M942 985q-14 21 -129 -371q-31 -105 -60 -262q-30 -157 -90 -262q-34 -57 -96 -89q-116 -60 -218 64q-82 100 -142 326q-36 129 -61 305t-31 245q-27 315 49 445q24 39 54 41q57 4 99 -93t55 -208q48 -410 80 -577q33 -166 64 -283q61 51 129 298q29 102 59 208t68 187
q39 81 90 122t130 9t130 -94t79 -140t40 -165q11 -87 23 -175t30 -171t58 -152q16 51 30 161q73 571 131 745t113 220q18 16 35 10q39 -16 45 -67q6 -50 -4 -150t-26 -255t-18 -322q-2 -290 -134 -492q-42 -66 -106 -71t-126 23t-115 78q-52 50 -73 97q-41 96 -58 210
q-16 114 -28 226t-27 210q-14 99 -49 169z" />
    <glyph glyph-name="X" unicode="X" 
d="M1004 47q-125 -74 -285 154q-73 103 -136 218q-63 116 -91 165q-41 -35 -120 -206q-80 -171 -119 -240q-38 -68 -66 -101t-48 -21q-107 58 136 550q40 80 71 140t39 82q0 8 -27 58t-57 118q-31 68 -63 136q-50 107 -118 163q-152 124 -54 150q148 -7 278 -137
q56 -57 108 -124t103 -124q83 117 212 266q196 227 218 205q46 -46 -133 -342q-47 -77 -87 -145t-68 -115q-27 -47 -21 -65t42 -75q36 -58 120 -198q155 -258 174 -348q20 -90 10 -125t-18 -39z" />
    <glyph glyph-name="Y" unicode="Y" horiz-adv-x="864" 
d="M90 1432q63 4 145 -112t102 -278q19 -162 91 -221q33 -25 70 -18q155 393 164 581q2 37 40 34t80 -39q43 -35 75 -101t21 -149q-56 -422 -288 -763q-94 -138 -232 -239q-80 -59 -156 -79t-120 -10q-45 11 -47 49t63 93q172 142 281 350q49 90 76 177q-129 27 -247 132
q-60 54 -100 130q-40 75 -76 153q-81 173 -44 258q20 48 102 52z" />
    <glyph glyph-name="Z" unicode="Z" horiz-adv-x="1134" 
d="M1327 202q-9 -34 -134 -72q-228 -70 -455 -95q-228 -25 -357 0t-170 39q-96 33 -122 95q-27 62 42 105q29 18 61 32t50 34q191 182 428 621q61 113 121 215q-47 6 -93 9t-125 12q-78 9 -126 33q-47 25 -79 62q-74 87 -50 122q13 18 99 -12q209 -72 417 -54q103 6 150 -1
q97 -15 149 -67q44 -44 -275 -544q-100 -158 -216 -329t-120 -184q84 -10 149 -18t153 -11t204 24t184 23q126 -6 115 -39z" />
    <glyph glyph-name="bracketleft" unicode="[" horiz-adv-x="1038" 
d="M705 1499q-1 -16 -21 -26t-83 -29t-97 -44q-78 -55 -80 -147q-6 -147 -1 -293t5 -260q0 -112 -19 -189t-25 -139t-13 -114q-14 -115 29 -158q26 -26 90 -18t195 38q236 54 351 27q-2 -35 -65 -75t-157 -75q-225 -81 -420 -67q-99 8 -172 52t-89 137q-25 139 -10 283
t27 249t33 286t57 363q35 183 45 197q10 13 44 23q73 20 182 23q109 2 152 -13q42 -15 42 -31z" />
    <glyph glyph-name="backslash" unicode="\" horiz-adv-x="862" 
d="M90 1302q-10 22 -18 83q-8 60 13 101q11 22 36 11q83 -43 317 -572q28 -62 102 -216q75 -154 113 -241q37 -88 66 -150t48 -129q46 -164 -15 -220q-36 -36 -137 120t-251 480q-34 72 -59 122t-59 174q-35 124 -41 153q-41 119 -73 191q-32 71 -42 93z" />
    <glyph glyph-name="bracketright" unicode="]" 
d="M82 193q23 16 73 16q50 1 135 -17t133 -23q113 -12 159 25q44 36 68 126q45 170 43 461t-41 462q-19 88 -44 117q-45 -4 -93 -14t-96 -18q-120 -19 -192 18q-113 50 -17 98q68 31 161 43q45 2 133 24q167 43 248 -45q52 -187 102 -524q51 -337 54 -428q11 -318 -77 -469
q-31 -55 -79 -66t-177 -18q-128 -7 -273 23q-146 30 -183 92q-37 61 -37 117z" />
    <glyph glyph-name="asciicircum" unicode="^" horiz-adv-x="774" 
d="M373 1284q-33 -41 -71 -95t-73 -74q-35 -21 -71 -25t-41 32q-8 70 28 154q69 161 95 198q28 36 58 46q54 18 165 -41q41 -21 97 -77q131 -132 165 -241q19 -57 -15 -80t-77 1t-89 63t-90 81t-81 58z" />
    <glyph glyph-name="underscore" unicode="_" 
d="M827 80q90 -22 174 -64q52 -31 38 -67q-13 -37 -68 -37q-120 -22 -306 -13q-187 9 -283 13t-173 -8q-63 -4 -107 10t-104 39q-48 32 -40 67t44 55q35 20 281 36q383 25 544 -31z" />
    <glyph glyph-name="grave" unicode="`" horiz-adv-x="724" 
d="M460 1144q-44 18 -68 36q-68 46 -167 162q-98 116 -59 161q31 35 181 -30t267 -162q118 -98 87 -139q-77 -97 -241 -28z" />
    <glyph glyph-name="a" unicode="a" horiz-adv-x="1003" 
d="M354 205q62 0 130.5 96.5t68.5 135t-2 78.5t1 79t12 67.5t31.5 30.5t54.5 10.5t79.5 -2.5t40.5 -164q-6 -153 16.5 -238t87.5 -99q45 -8 81 21.5t65 66.5t49.5 66.5t33.5 23.5t9 -51t-30.5 -101.5t-79 -113t-114.5 -79.5q-236 -87 -325 183q-37 -90 -111.5 -132
t-146.5 -45t-135.5 44t-101 127t-40.5 185.5t38 201.5t94 149.5t113.5 87t121 49t108.5 17.5t77.5 -7.5t24.5 -31.5t-33.5 -38.5t-65.5 -35t-75.5 -41t-72.5 -70.5t-50.5 -130t-15.5 -157t18.5 -129t43.5 -54z" />
    <glyph glyph-name="b" unicode="b" horiz-adv-x="991" 
d="M270 610q57 78 109 176q113 238 129 463q8 117 -33.5 145t-87.5 -61q-70 -143 -104 -454q-13 -132 -13 -269zM563 884q-88 -226 -260 -440q-4 -161 66.5 -247t140.5 -86q43 0 75.5 44t63.5 149.5t0 217.5q-14 53 -38.5 73.5t-48 30t-38 17.5t-7.5 38t38 54.5t100 43.5
t125 -42q99 -111 181.5 -136.5t111.5 -21t42 -9t6 -33t-35.5 -39t-83.5 -27.5q-80 -11 -181 49q55 -77 29 -233q-43 -202 -157.5 -259t-229.5 -57t-207 69t-168.5 232.5t-52.5 486.5t143 568q50 131 167.5 186t203.5 11q102 -57 102 -235.5t-88 -404.5z" />
    <glyph glyph-name="c" unicode="c" horiz-adv-x="686" 
d="M573 826q31 -36 23 -50t-41 -9q-175 26 -231 -114q-53 -140 -34 -283t103 -180q98 -40 199 12q38 19 66 42t44 28q39 12 35 -30t-45 -92q-124 -156 -296 -162q-62 -2 -130 24t-121 80q-107 111 -134 287t64 329q46 79 126 137q136 99 285 40q56 -23 87 -59z" />
    <glyph glyph-name="d" unicode="d" horiz-adv-x="1040" 
d="M257 479q-9 -96 -4 -171t36 -79q54 -15 131 81q67 83 108 189t11 119q-109 41 -191 -1t-91 -138zM846.5 1577q21.5 0 16.5 -212t-10 -376t-3 -324t18.5 -256t42 -150t54 -76.5t55.5 -30t45 -9.5t25 -14q8 -18 -13.5 -47t-95 -65t-188.5 28q-91 50 -117 172
q-12 53 -10 111q-120 -219 -312 -264t-266.5 108.5t-64.5 316t100 256.5q116 116 307 62q82 -25 166 -82q42 476 31 621q-7 89 59 143.5t102.5 71t58 16.5z" />
    <glyph glyph-name="e" unicode="e" horiz-adv-x="790" 
d="M285 559q99 15 194 105q60 57 66 122q2 27 -8 50q-58 16 -109 -21t-92 -96t-49 -101q-8 -43 -2 -59zM94 782q84 160 309.5 203t272.5 -104t-44 -281t-229 -176q-59 -20 -116 -18q-4 -156 51 -204.5t125 -37.5q70 12 116 54t76.5 85t50.5 75t40 22t21 -50.5t-35.5 -138
t-163 -182t-302.5 -29.5q-148 46 -212.5 190t-49 314t89.5 278z" />
    <glyph glyph-name="f" unicode="f" horiz-adv-x="688" 
d="M659 1423q0 -31 -29.5 -38t-67.5 -8t-74.5 -8t-68.5 -75.5t-32 -350.5q0 -130 8 -275q88 23 232 47q115 15 136 -12t10 -44.5t-61 -28.5q-135 -29 -309 -112q35 -551 -47 -633q-62 -57 -128.5 -72t-77.5 44q-13 53 -11 159.5t3 186.5t3 211q-8 -4 -21 -14t-52 -13
q-39 -4 -61.5 26.5t-6.5 68.5q36 87 133 126q-26 414 18 615.5t142 274t204.5 26t132 -67.5t25.5 -33z" />
    <glyph glyph-name="g" unicode="g" horiz-adv-x="823" 
d="M526 -516q27 80 13 326q-154 -132 -144 -261q5 -51 23 -75q36 -45 81 -18q19 12 27 28zM333 713q-53 0 -73 -33q-42 -67 -48 -170q-7 -103 36 -137q12 -10 34 7t50 43q77 70 138 78q90 11 171 -120q27 -43 57 -99t52 -161q53 33 100 63q116 73 167 68q51 -4 26 -49
q-11 -20 -62 -58t-113 -96q-63 -58 -84 -74q49 -338 -43 -554q-33 -77 -99 -137t-146 -68q-165 -20 -238 140q-36 77 -20 182q27 183 172 325q66 66 141 112q-6 50 -20 98q-13 48 -30 111q-23 82 -89 164q-113 -126 -197 -129q-33 0 -74 35q-86 73 -122 223q-17 74 -5 152
q35 197 144 239q30 12 68 20t128 -22q90 -29 188 -109q40 -34 38 -52q-2 -17 -44 -13t-96 12t-107 9z" />
    <glyph glyph-name="h" unicode="h" horiz-adv-x="944" 
d="M264 778l18 52q94 286 89 430q-9 130 -35.5 155t-63 -20.5t-11.5 -555.5zM286.5 10.5q-22.5 -20.5 -67.5 -20.5t-101 40q-55 40 -48 197q-27 929 20 1122t80 205q107 37 183.5 -27.5t106 -112.5t34.5 -87q23 -127 1 -229.5t-61 -188.5t-82 -157.5t-61 -139.5
q73 132 154.5 192t136.5 60t106 -26t85 -87t49.5 -135.5t19.5 -156.5t12.5 -211.5t57.5 -187.5q48 -58 83 -79.5t59.5 -26.5t40 -4t22.5 -6q16 -16 9 -31.5t-60 -33.5q-54 -18 -141 -5t-190 87t-125.5 319.5t-47.5 298t-62 54.5t-65.5 -28t-67.5 -125t-54 -369
q-4 -80 -26.5 -100.5z" />
    <glyph glyph-name="i" unicode="i" horiz-adv-x="481" 
d="M169 1323q46 10 90 -2t76 -42q33 -30 25 -73t-52 -77t-132 -25q-47 4 -76 58q-28 56 -3 104q26 48 72 57zM637 272q0 -25 -28 -83q-59 -121 -171 -175q-113 -54 -236 -12t-162 162q-40 115 -32 373q20 165 76 244q18 28 41 39q75 36 126 31q78 -7 46 -118
q-33 -142 -18 -320q15 -218 94 -245q59 -20 102 4t80 76q15 23 35 38t34 13t13 -27z" />
    <glyph glyph-name="j" unicode="j" horiz-adv-x="847" 
d="M305 1060q-77 10 -94 64q-15 97 35 113q49 16 114 -18q65 -35 93 -78q24 -33 -11 -68q-36 -36 -66 -27t-71 14zM395 -307q40 59 58 166q15 59 8 181t-37 150q-89 -53 -156 -183q-66 -130 -75 -253t68 -136t134 75zM518 -532q-69 -71 -184 -93q-210 -28 -265 132
q-38 113 7 335q50 348 317 529q-12 81 -44 157t-62 143q-31 67 -51 117t-9 80q66 46 187 -13q33 -15 55 -32q66 -66 112 -245q11 -47 23 -86q37 19 142 41q235 50 235 -13q0 -23 -43 -41t-200 -68q-51 -17 -74 -40q-10 -11 -8 -51t20 -153t18 -197q0 -153 -54 -292
q-53 -139 -122 -210z" />
    <glyph glyph-name="k" unicode="k" horiz-adv-x="999" 
d="M373 438q80 103 158 107q42 2 81 -53q55 53 57 100q1 46 -37 68q-72 41 -155 -39t-104 -183zM315 843q2 9 57 154t75 247t19 152t-31 61t-50 -30t-38 -132t-23 -225q-6 -134 -8 -183zM1153 316q0 -76 -47 -155q-138 -232 -305 -214q-135 10 -212 112q-53 71 -74 179
q-7 40 -11 66t-8 24q-47 -15 -81 -15h-59l-14 -256q0 -39 -28 -61t-62 -20q-34 1 -71 28q-36 27 -50 72q-34 108 -30 579t32 613q29 167 126 244t193 45q169 -57 158 -258q-6 -140 -116 -378q-43 -91 -84 -159t-61 -105q42 63 112 109q156 103 235 85q78 -19 125 -57
t57 -102q16 -107 -63 -198q-78 -92 -174 -119q-6 -2 1 -30q6 -27 26 -63q50 -92 127 -124q148 -63 287 129q22 29 35 48t18 19q18 -4 18 -38z" />
    <glyph glyph-name="l" unicode="l" horiz-adv-x="712" 
d="M272 580q184 305 228 544q22 126 21 173q-2 99 -62 106q-83 8 -134 -124q-70 -175 -63 -511q2 -98 10 -188zM668 1239q-26 -298 -203 -602q-78 -131 -172 -238q0 -67 61 -157q53 -86 118 -108t125 -4t105 61q46 45 62 91t32 60q33 28 51 -23q7 -23 5 -49
q-73 -191 -209 -272q-82 -51 -194 -48q-113 3 -200 64q-87 62 -140 158q-95 173 -103 494t97 591q73 190 203 263q69 38 149 28t125 -44q112 -85 88 -265z" />
    <glyph glyph-name="m" unicode="m" horiz-adv-x="1761" 
d="M371 130q-1 -30 -21 -54t-53 -37q-81 -29 -162 29q-50 37 -78 246t-23 351q9 257 48 265q135 7 188 -156q23 -70 29 -160q33 66 93 138q61 73 97 108q130 123 312 55q167 -60 203 -273q36 -217 50 -238q10 -18 36 56q88 265 233 326q90 39 185 -72q115 -134 134 -378
q12 -160 48 -217t133 -37q37 8 51 -12t2 -47t-52 -51t-107 -24q-114 1 -205 104t-145 240q-24 58 -39 105t-25 78q-11 31 -29 8q-34 -43 -73 -145q-95 -244 -180 -292t-180 51q-94 100 -129 374q-9 70 -18 170t-18 129q-49 105 -217 -88q-71 -77 -86 -293q-6 -84 -4 -156
q2 -73 2 -103z" />
    <glyph glyph-name="n" unicode="n" 
d="M254 844q12 0 17 -16.5t16.5 -73t7.5 -285.5q137 268 248 312t188.5 -12t94 -149t26.5 -222.5t23.5 -184.5t37 -94t64.5 -49t77 -1t67.5 24.5t55 26.5t33.5 5q8 -8 -9 -45t-89 -107t-216 -52q-145 19 -212.5 157.5t-77.5 361.5q-8 156 -57.5 160t-124.5 -109
q-75 -112 -87.5 -208.5t-15 -139.5t-11.5 -65q-16 -38 -110.5 -37.5t-122.5 27.5t-24.5 332.5t26.5 344.5t67 61.5t70 30t38 7.5z" />
    <glyph glyph-name="o" unicode="o" horiz-adv-x="784" 
d="M274 653q-24 -24 -29 -129q-14 -290 46 -395q20 -37 49 -33q55 8 100 113q45 106 52 200q11 162 -43 218q-53 55 -93 60t-82 -34zM514 831q176 -106 209 -304q34 -198 -71 -354q-108 -165 -302 -169q-106 -2 -188 52q-158 106 -173 320q-15 213 115 337q66 61 160 67
q149 10 220 60q7 3 30 -9z" />
    <glyph glyph-name="p" unicode="p" horiz-adv-x="929" 
d="M104 -510q-32 31 -32 597q0 565 11 709t17 152q34 38 89 1t81 -81q20 -29 25 -98q6 -68 10 -90t13 -10t32 46t61 70q141 132 319 57q103 -45 146 -161q22 -59 18 -137q-9 -149 -98 -234t-212 -110q-122 -25 -160 -19t-30 36q7 30 40 47t65 31q33 14 73 34q40 22 72 62
t44 86q29 110 -47 172q-77 62 -147 28t-122 -148q-52 -113 -55 -557l2 -391q0 -76 -5 -112q-10 -69 -80 -55q-70 12 -130 75z" />
    <glyph glyph-name="q" unicode="q" 
d="M362 251q86 -95 185.5 -76.5t111.5 22.5q-19 211 -49 271q-61 125 -132 182.5t-137 6.5q-65 -51 -65 -181t86 -225zM673 -400q-1 56 -1 196t-6 272q-246 -50 -358.5 0.5t-202 155.5t-58.5 327q54 253 151.5 292.5t157.5 51.5t117 -16.5t99 -71.5t68 -84t34 -53.5t10 24.5
t0 130.5t9 98.5q41 18 105 26.5t95 -25.5q18 -23 24.5 -263.5t6.5 -355.5q73 48 133.5 111t76 72.5t24.5 -8.5q20 -40 -45.5 -137.5t-188.5 -172.5q0 -466 -36 -590q-13 -44 -47 -80.5t-69 -46.5t-61.5 6.5t-31.5 50.5t-6 90z" />
    <glyph glyph-name="r" unicode="r" horiz-adv-x="704" 
d="M102 527q0 81 -9 164.5t-58 109.5q-31 16 -70.5 16.5t-48.5 18.5q-8 18 17.5 42.5t102 54t165.5 -41.5q111 -96 141 -191q111 107 207 136.5t162 11.5q16 -6 15 -25.5t-28.5 -59.5t-96.5 -55q-211 -46 -209 -409q2 -276 -142 -285q-151 -8 -149 288q1 144 1 225z" />
    <glyph glyph-name="s" unicode="s" horiz-adv-x="718" 
d="M171 950q52 68 164 87t150 4t51 -37q13 -23 2.5 -32t-53 -29.5t-81.5 -64t-39 -147.5q-4 -128 190.5 -320.5t175.5 -324.5q-19 -109 -191 -157t-348 -8.5t-202 147.5q-39 143 8.5 217t107.5 106q60 33 75.5 6.5t-19.5 -86.5t33 -132.5t165 -76.5t152 38.5t17.5 92.5
t-224 200t-186.5 299q0 150 52 218z" />
    <glyph glyph-name="t" unicode="t" horiz-adv-x="655" 
d="M676 1038q0 -68 -236 -110q11 -377 10.5 -501t-10.5 -216q-17 -161 -66.5 -184.5t-121.5 6.5q-58 19 -62 860q-55 -12 -99 -12q-108 0 -122 63q-6 29 40 61.5t169 61.5v33l2 55l-2 139q-2 139 8 181q6 37 43 41t78 -16.5t76 -58.5t37 -84t4 -99t8 -173q244 21 244 -47z
" />
    <glyph glyph-name="u" unicode="u" horiz-adv-x="991" 
d="M285 490.5q0 -244.5 102 -244.5q83 0 142 129t67 273t10 178t21.5 50.5t60.5 18t107.5 -40.5t69.5 -81q3 -40 -1 -98.5t-7 -131t-3 -149.5t19 -184t94 -124q39 -10 53 -26.5t-6 -44.5t-120 -10q-164 28 -228 169q-29 61 -35 135q-52 -158 -137.5 -214t-260.5 -31
t-208 415q-19 180 -0.5 260t28.5 90q12 10 51 22.5t114.5 14.5t72.5 -71q-6 -60 -6 -304.5z" />
    <glyph glyph-name="v" unicode="v" horiz-adv-x="870" 
d="M313 823q23 -27 19 -55q-29 -251 41 -470q27 -85 55 -124t43 -14q15 26 27 102q63 388 220 490q72 48 96 32q24 -14 20 -65t-26 -128t-50 -181t-79 -204q-97 -194 -170 -209q-128 -27 -222 54q-61 52 -131 168q-63 95 -115 340q-30 154 -9 241t127 84q106 -2 154 -61z
" />
    <glyph glyph-name="w" unicode="w" horiz-adv-x="1626" 
d="M1724 565q0 -23 -22 -23q-23 0 -71 34t-107 -22t-93 -206t-72 -205t-79 -80t-98 -31q-56 -6 -104 24q-95 59 -149 184q-26 57 -35 105q-9 47 -16 67q-6 20 -14 14t-18 -35t-28 -76t-34 -94q-61 -172 -228 -206q-168 -34 -323 125q-60 64 -90 137q-88 213 -96 367t41 178
q91 43 156 9q63 -31 59 -94q-29 -238 51 -439q31 -79 65 -116t46 -14t42 156t93 273q39 85 98 132q150 119 229 -32q51 -97 70 -184q40 -188 73 -252q18 -39 42 -21t45 63q20 45 68 165q82 206 160 277q39 35 91 33t98 -28q91 -51 132 -127q18 -35 18 -58z" />
    <glyph glyph-name="x" unicode="x" horiz-adv-x="974" 
d="M135 -20q70 -87 2 -132q-29 -20 -63 -9t-51 44q-18 33 -10 83q9 50 55 96q98 98 235 247q-194 216 -304 485q-70 171 -54 273q8 51 44 71q87 50 230 -169q68 -104 135 -227q68 -124 92 -160t29 -45q6 -10 14 -21q156 173 234 243q78 69 125 107t85 47q38 10 41 3t10 -12
q29 -20 -9 -74q-37 -54 -68 -100q-114 -169 -286 -353q74 -74 204 -190q236 -211 224 -283q-8 -37 -193 47t-391 221q-16 8 -37 29q-154 -146 -293 -221z" />
    <glyph glyph-name="y" unicode="y" horiz-adv-x="940" 
d="M292 301q-77 0 -132.5 40t-81 99.5t-26.5 129t11.5 128t35.5 96t46 35.5q41 -4 58.5 -32.5t23.5 -68.5t4 -85t-1 -84t10.5 -65.5t36.5 -29.5t50 21.5t46.5 64.5t49.5 89t60 102t95 68q27 8 53 4q60 3 127 -141.5t118 -471.5t-41 -565.5t-261.5 -340.5t-340.5 -56
q-78 23 -138 87.5t-91 150.5t-21.5 183t73.5 183t152.5 136.5t169.5 72t136 19.5t53 -17q0 -16 -29.5 -34.5t-75.5 -48t-104.5 -76t-116 -118t-55.5 -133t46 -91t124 -15.5t179 96q167 140 120 527q-20 172 -77 360q-66 -122 -137.5 -170.5t-148.5 -48.5z" />
    <glyph glyph-name="z" unicode="z" horiz-adv-x="735" 
d="M266 -613q66 29 123 192q58 162 47 274q-6 49 -26 75q-220 -253 -213 -424q2 -76 21 -104t48 -13zM635 350q101 74 153 65q24 -4 31 -24q12 -31 -79 -102t-119 -106q-27 -35 -37 -50q59 -94 71 -265q6 -90 -12 -202q-17 -112 -67 -190t-112 -128t-129 -72t-112 -10
q-98 25 -132 99q-42 95 -9 256q33 162 78 231q45 68 91 121t114 131q-37 74 -76 103t-72 41t-57 20t-29 34q-9 40 59 94q29 24 63 48q114 82 128 178q9 77 -66 115q-45 23 -73 9t-54 -36q-24 -22 -50 -37t-55 2q-54 32 -29 115q26 83 112 139q85 56 215 24q131 -32 186 -126
t32 -219t-130 -202q-47 -37 -100 -62q35 0 75 -30t70 -72q68 70 121 108z" />
    <glyph glyph-name="braceleft" unicode="{" horiz-adv-x="831" 
d="M829 -267q-165 -185 -372 -112q-135 40 -235 159q-99 121 -87 267q20 156 92 311q23 39 38 72t38 62q-41 29 -110 71t-93 61q-57 46 -27 75q46 43 160 82t134 48q38 15 23 51q-14 36 -48 63q-33 27 -70 51q-141 94 -125 212q4 74 41 141q36 66 67 101q53 58 162 80
t182 -4q34 -12 47 -41t-1 -43t-82 -20q-69 -7 -112 -25q-80 -46 -87 -146q-7 -99 44 -143q72 -72 109 -131t43 -128t-22 -104t-81 -61t-181 -53q16 -10 68 -33q52 -22 100 -52q126 -76 74 -120q-84 -84 -130 -224q-22 -65 -28 -170t20 -164q25 -58 59 -90t92 -56
q59 -24 113 -6t97 49q43 30 74 54q31 23 46 9q29 -28 -32 -93z" />
    <glyph glyph-name="bar" unicode="|" horiz-adv-x="636" 
d="M354 264v-174q0 -55 -33.5 -123t-62.5 -35q-28 36 -34.5 143t-8.5 185t-3 152.5t-1 140t-2 141.5t-5 178t-1 178t2 251t100 208q25 8 41 -35.5t26.5 -118.5t15.5 -170t8 -185.5t3 -166t2 -108.5t-2 -79t-9 -96t-20.5 -149.5t-15.5 -136.5z" />
    <glyph glyph-name="braceright" unicode="}" horiz-adv-x="704" 
d="M606 225q76 -107 76 -272t-150 -264q-125 -82 -248 -71q-75 7 -114 46q2 18 29 32t65 30q108 47 148 97q86 105 61 269q-37 166 -137 189q-64 13 -99 63t1 102q22 28 46 46t44 45q10 18 -10 40q-20 23 -48 49q-30 26 -58 58t-35 70q-12 62 52 169t121 167q81 100 44 234
q-11 40 -38 71q-20 27 -43 29t-45 -2q-22 -3 -41 -2q-20 1 -39 24q-24 32 -10 56t43 37t65 16t56 -5q150 -71 216 -220t1 -286q-23 -54 -173 -198q-32 -30 -54 -56q-22 -24 3 -48t65 -50t78 -60q38 -32 38 -79q-10 -27 -32 -45t-46 -34t-48 -34q-22 -16 -34 -41
q4 -10 34 -24q167 -78 216 -148z" />
    <glyph glyph-name="asciitilde" unicode="~" 
d="M540 791.5q52 -58.5 80.5 -107.5t62.5 -88t57.5 -38t44 18.5t41 45t37 55.5t30.5 50.5t27 26.5q-2 -35 7 -58.5t23 -65t1 -96.5q-14 -55 -57.5 -96t-84.5 -54q-89 -28 -148 -6.5t-118 99.5q-37 45 -51.5 82t-24.5 64.5t-27.5 46t-58.5 28.5q-82 0 -92 -94t-44.5 -137
t-105.5 -23q-57 30 -45 138q5 91 77.5 179.5t194.5 88.5t174 -58.5z" />
    <glyph glyph-name="exclamdown" unicode="&#xa1;" horiz-adv-x="489" 
d="M318 1257.5q-20 -22.5 -48 -17.5q-61 11 -102.5 38.5t-34.5 89.5q0 68 66.5 60.5t91.5 -17.5q27 -8 40 -38t10 -61.5t-23 -54zM129 360q0 43 -10 112t-17.5 189.5t64.5 196.5q8 6 20.5 28.5t36 56t47.5 -18.5q31 -51 38 -110.5t12 -130.5t30.5 -281.5t-31.5 -397.5
q-22 -52 -88 -19.5t-106 83.5q-33 49 -22.5 111.5t18.5 100t8 80.5z" />
    <glyph glyph-name="cent" unicode="&#xa2;" 
d="M496 137q-37 485 0 766q-18 6 -53 -16.5t-112 -125.5t-48.5 -346.5t213.5 -277.5zM1112 313.5q0 -28.5 -21 -79.5t-79 -103q-43 -53 -124 -88t-161 -45q0 -176 -24.5 -248t-51.5 -84q-81 -31 -104 64.5t-29 158t-10 103.5q0 4 -31 9t-212 61t-236 380q-39 239 92 400
t383 221q6 0 6 15.5t-2 68t24 127.5q0 37 31.5 74t79.5 12q33 -56 46 -158t11 -129q107 -32 174 -80q90 -83 112 -133.5t22 -68.5q-13 -44 -49.5 -19t-64.5 49.5t-73 56.5t-112 31v-49l1 -184l-1 -537q138 5 210 92.5t105.5 126t71.5 0.5q16 -16 16 -44.5z" />
    <glyph glyph-name="sterling" unicode="&#xa3;" horiz-adv-x="882" 
d="M571 647q0 -201 -80.5 -308.5t-144.5 -152.5q18 2 63.5 9.5t102.5 12.5t118.5 5t144 -19t75.5 -100q-2 -33 -34 -51t-83 -30.5t-115.5 -19.5t-190.5 -22.5t-212 -44.5q-44 -15 -108 42t-44.5 114.5t29.5 62.5q60 29 138 126t85 221q5 85 -8 174q-109 0 -153.5 22.5
t-38.5 51t56 54t130 33.5q-58 224 -30.5 395t138.5 204.5t240 3.5q20 -6 48 -12.5t69 -28.5t20 -66q-10 -20 -41.5 -18t-73.5 8t-89 8.5t-86 -19.5t-49.5 -60t-6.5 -85t18.5 -97t32 -96t32 -82t20.5 -55q9 -17 105.5 -24.5t130.5 -2.5t50.5 -13.5t13.5 -43t-26.5 -48
t-68.5 -29.5q-68 -16 -122.5 -16.5t-54.5 -2.5z" />
    <glyph glyph-name="currency" unicode="&#xa4;" horiz-adv-x="1392" 
d="M928 807q-35 29 -66 53t-94 31q-62 8 -112 -12t-78 -85t-17 -137q10 -73 47 -121t91 -66t108 5q122 41 165 140q43 105 -44 192zM1313 268q54 -69 21 -147q-13 -33 -39 -52t-56 -16q-105 28 -164 116q-18 28 -41 62q-31 59 -52 74q-22 14 -46 8t-54 -22q-32 -16 -83 -19
q-86 10 -124 28t-40 9q-43 -47 -79 -102t-86 -107q-93 -95 -105 -55q-11 29 29 125q40 97 75 150q36 53 37 84t-27 79t-37 88q-41 102 -30 207q-14 8 -58 32t-73 45t-99 65q-141 89 -149 166q-7 76 104 44q45 -12 91 -34t73 -36q27 -13 53 -37t66 -40q35 -31 58 -36t58 22
q34 27 74 45q122 54 209 41q86 -8 190 -69q17 -9 37 7t100 114q80 99 114 128q67 59 94 35q36 -47 -78 -233q-61 -95 -99 -139q-37 -44 -40 -48q52 -114 26 -242q-31 -85 -67 -145q-6 -6 20 -27q174 -129 197 -168z" />
    <glyph glyph-name="yen" unicode="&#xa5;" horiz-adv-x="901" 
d="M153 764q89 0 141 -3t91 1v39q0 39 -5 56t-23.5 54t-56.5 79q-110 122 -200.5 265.5t-50.5 165.5q13 9 66 -40.5t90 -86.5t69.5 -71.5t59 -64.5t34.5 -40q86 -102 87 -135q53 39 116.5 133t98.5 142.5t69 76.5q25 18 55 -12.5t50 -83.5q15 -51 -107 -218.5t-124.5 -205
t-4.5 -65.5q0 -18 110 -32.5t126 -37.5t14 -35q-10 -14 -26.5 -9t-25.5 2q-30 -10 -104.5 -24t-87 -8t-6.5 -4q2 -16 2 -20v-41q0 -14 -2 -27h153q153 0 144 -37q-10 -6 -59 -46.5t-144 -45.5q-14 -2 -58 -7t-44 -11v-151q0 -150 -27 -179q-72 -62 -119.5 15.5t-56.5 138.5
q-8 61 -16 182q-14 2 -155.5 17t-164.5 67q-4 14 13.5 35.5t36.5 25.5q10 6 50 6t87 -2t88 -4t53 0q2 25 0 57.5t-6 32.5q-8 8 -119 8q-39 4 -76.5 3t-63.5 5q-52 11 -84 44.5t-5 58.5q29 37 118 37z" />
    <glyph glyph-name="brokenbar" unicode="&#xa6;" horiz-adv-x="587" 
d="M313 -436q-50 6 -78.5 118t-32.5 197q-5 84 -19.5 237.5t75.5 202.5q46 29 61 7.5t23 -42t22.5 -37t16.5 -42t-1 -55t-8 -60.5t-3 -43t2 -247.5t-58 -235.5zM330 762q0 -98 -58.5 -111.5t-67 324.5t37 418t76 90t53.5 0q29 -16 31 -150.5t-12.5 -268t-37.5 -168.5
q-22 -36 -22 -134z" />
    <glyph glyph-name="section" unicode="&#xa7;" horiz-adv-x="823" 
d="M268 766q-71 -68 -22 -164q20 -41 60 -71q85 -64 183 -14q49 26 93 97q38 74 -10 137t-112 88t-117 -10q-29 -17 -75 -63zM460 -213q63 37 78 113q14 75 -38 131q-29 33 -62 53t-106 60t-133 102q-113 106 -158 225t2 283q23 80 134 184q17 16 11 18q-111 67 -118 222
q-14 220 128 299q120 66 272 42q71 -11 124 -43q105 -63 98 -101q-4 -36 -110 -15t-161 17q-120 -7 -163 -85q-12 -28 -12 -66t12 -74q28 -85 111 -112q192 -63 264 -109q73 -46 109 -89t60 -120t8 -165t-108 -143q-190 -126 -357 -46q-46 22 -83 46q14 -10 47 -52t85 -73
t112 -43q149 -30 220 -140q22 -33 40 -69q80 -137 -23 -289q-77 -105 -271 -131q-132 -15 -253 41q-101 44 -90 100q14 79 105 44t141 -35q51 0 85 20z" />
    <glyph glyph-name="dieresis" unicode="&#xa8;" 
d="M278 1520q44 0 72 -62q12 -16 50 -50q73 -66 69 -108q-19 -89 -107 -82t-148 81q-58 75 -27 162l-11 -22l-5 -9q1 4 24 51q39 39 83 39zM800 1284q-32 0 -59 28q-56 58 -56 122q0 -16 -4 -16q-5 4 5 44q2 6 1 -1q21 46 57 48q36 1 67 -25t47 -68t-4 -87q-22 -45 -54 -45z
" />
    <glyph glyph-name="copyright" unicode="&#xa9;" horiz-adv-x="1470" 
d="M698 428q-113 37 -182.5 123t-73.5 205q-8 106 51.5 181t149.5 110.5t191.5 28.5t179.5 -64q45 -33 36.5 -53.5t-41 -30.5t-75.5 -13t-74 5q-76 18 -153.5 -19.5t-77.5 -122.5q-7 -129 80.5 -165.5t195.5 14.5q14 6 85 38.5t93 10.5q25 -29 -10 -79t-98.5 -94
t-140.5 -68.5t-136 -6.5zM1370 397q-74 -140 -210 -211t-197 -108q-168 -96 -333 -94t-297 78.5t-215 217t-89 318.5q0 389 192 643q96 134 195 159.5t232 14.5q133 -10 194 -29.5t119.5 -45t115 -54.5t105.5 -49q89 -36 196 -182.5t107 -220.5q-11 -109 -60 -265t-55 -172z
M1062.5 293.5q83.5 84.5 133.5 156.5q86 122 108 258t-20 261q-48 111 -97.5 158t-125.5 69t-122 43t-138 56t-184 37q-93 3 -140 -27.5t-85 -88t-82 -184.5q-91 -264 -61 -501t216 -353q197 -133 355.5 -51t242 166.5z" />
    <glyph glyph-name="ordfeminine" unicode="&#xaa;" horiz-adv-x="892" 
d="M512 1186q-71 -194 -196 -189q-48 2 -107 52q-110 83 -137 207q-26 123 84 202q86 70 183 65t218 -87q17 -9 39 -8q22 2 28 -4t11 -32l9 -63t13 -69q13 -111 95 -138q20 -6 34 -20q-51 -98 -129 -105q-72 -13 -128 110q-15 36 -17 79zM454 1359l2 -3q0 2 -2 3zM454 1359
q-27 12 -66 36t-70 23q-30 -2 -62 -30t-39 -77q-8 -49 27 -92t77 -36q41 7 77 40t56 80q19 47 11 88q-14 6 -19 -3t1 -19q7 -9 7 -10z" />
    <glyph glyph-name="guillemotleft" unicode="&#xab;" horiz-adv-x="901" 
d="M559 555q148 -72 210 -118q144 -107 110 -197q-16 -43 -172 68t-197 125q-41 15 -69 49q-56 68 -12 152q22 40 70 76q108 81 230 140q10 8 48 18q97 25 129 0q19 -14 -7 -55q-21 0 -151 -94q-131 -95 -189 -164zM650 866q-74 -31 -190 -117q-116 -87 -156 -123
q-93 -85 -68 -111q33 -34 123 -84q91 -50 130 -91q27 -20 60 -57q58 -65 41 -105q-18 -40 -44 -41q-25 -3 -44 15t-65 54q-220 172 -300 267t-46 135q34 39 69 80q144 168 366 254q47 6 85 -8q39 -14 49 -30t-9 -38h-1z" />
    <glyph glyph-name="logicalnot" unicode="&#xac;" 
d="M637 590q-51 0 -219.5 17.5t-283.5 64.5t-28 119q107 86 366.5 60.5t324.5 -40.5q78 0 122 -64.5t58 -156.5q0 -185 -46 -259.5t-74 -85t-44 18.5q-29 45 -41 102.5t-24.5 106.5t-36 83t-74.5 34z" />
    <glyph glyph-name="registered" unicode="&#xae;" horiz-adv-x="1431" 
d="M618 1059q-57 -29 -87 -145q-14 -60 -21 -177q65 39 131 58q39 6 71 24t54 64q19 56 -23 129q-18 33 -50 49t-75 -2zM985 430q-12 -25 -49 -22q-62 6 -284 188q-73 59 -150 119q-12 -44 16 -115q57 -142 61 -172q10 -63 -71 -55q-81 7 -108 164q-26 156 16 339
q42 182 137 269q43 43 98 40t105 -34t83 -81q34 -50 35 -99q13 -90 -54 -165t-179 -91q12 -27 50 -49t120 -61t116 -62q76 -51 58 -113zM1267 899q1 -6 0 2v-2zM1262 956q-8 49 -41 81t-71 60q-38 29 -73 59t-49 77q-110 49 -238 88t-247 29q-215 -18 -318 -222
q-87 -170 -73 -385q12 -252 179 -431q166 -179 406 -177t407 300q91 168 112 358q12 89 6 163zM1006 1313h1q7 2 27 11t62 2q103 -18 239 -167q118 -123 51 -411q-16 -74 -30 -136q-72 -329 -299 -493q-227 -163 -555 -68q-138 51 -240 153q-209 209 -229 510
q-10 146 39 285q57 146 113 219q107 139 231 175q138 42 390 -34q126 -38 200 -46zM1006 1313q-3 1 -10 2z" />
    <glyph glyph-name="degree" unicode="&#xb0;" horiz-adv-x="636" 
d="M423 1135q42 32 51 95.5t-12.5 114t-65.5 69t-101 -31.5q-48 -30 -43 -115.5t54 -134.5t117 3zM94 1265q0 93 51 171q20 43 68 70.5t82 27.5q94 0 160.5 -42t101.5 -103.5t37 -131.5t-27 -127t-79 -102t-109.5 -59.5t-121.5 12.5t-112 115q-51 76 -51 169z" />
    <glyph glyph-name="plusminus" unicode="&#xb1;" horiz-adv-x="999" 
d="M287.5 635q-58.5 0 -143 15t-60.5 89q9 70 127.5 65t163.5 -3q12 97 6 177q-6 81 32 105.5t84 5t86 -82t40 -160.5q-2 -20 20.5 -26.5t58 -8.5t76.5 -1t77 -4t57.5 -19.5t17.5 -44.5t-25.5 -46t-64.5 -25.5t-119.5 -12t-85.5 -15.5q-8 0 -23 -2t0 -158q-6 -43 -19 -80.5
t-61 -48.5q-61 -6 -88.5 29t-38 84t-9.5 98t-3 72q-47 -2 -105.5 -2zM539 98q-37 -2 -202.5 -13t-221.5 71q-12 68 170 94t379.5 14.5t201.5 -51.5q23 -66 -60 -88.5t-267 -26.5z" />
    <glyph glyph-name="twosuperior" unicode="&#xb2;" horiz-adv-x="458" 
d="M379 1095q-1 -15 -17 -25t-43 -7q-27 2 -63 4t-79 2q-42 0 -83 -6t-60 12q-42 40 -5 110q17 32 39 50q122 98 125 195q-1 22 -15 28t-30 -2q-42 -20 -44 -67q-14 -13 -27 13t-8 60t35 58q31 25 107 10q123 -42 79 -163q-20 -52 -66 -103t-101 -88q51 0 87 1t86 -15
t67 -34q16 -18 16 -33z" />
    <glyph glyph-name="threesuperior" unicode="&#xb3;" horiz-adv-x="380" 
d="M330 1140q0 -38 -31 -55.5t-70 -27.5q-158 1 -174 63q-11 43 26.5 46t105.5 -2.5t71 14.5q0 10 -25.5 28.5t-77 55.5t-36.5 65q17 20 79 36.5t88.5 27t30.5 26.5q7 56 -27 59t-61.5 -2.5t-70.5 -12.5t-49 16q-14 33 11 48t64 18t79 -3t54 -14q92 -64 42 -117t-90 -81
t-62 -50q4 -4 24.5 -14.5t42 -25.5t39 -37.5t17.5 -60.5z" />
    <glyph glyph-name="acute" unicode="&#xb4;" horiz-adv-x="882" 
d="M524 1532q66 10 106 1t63 -39q39 -51 -79 -149t-267 -163t-181 -29q-39 45 59 161t166 162q67 46 133 56z" />
    <glyph glyph-name="mu" unicode="&#xb5;" horiz-adv-x="1273" 
d="M1308 133q20 0 25 -8q3 -8 -29 -47t-87 -67q-114 -58 -226 -19t-151 168q-20 66 -13 153q-116 -311 -318 -301q-81 4 -183 78q-4 -156 38 -499q9 -81 16 -155t-23 -113q-29 -40 -71 -35q-42 6 -84 54t-57 138q-64 476 -24 897q0 60 -15 271t3 296q10 16 46 38
q35 22 75 27q102 13 116 -96q6 -53 6 -110l-2 -229q0 -130 37 -227t75 -132t66 -39t60 25q100 60 148 192q47 131 52 277q-12 100 48 195t115 93q90 0 78 -261t1 -369q20 -179 96 -199q51 -13 107 -5q55 9 75 9z" />
    <glyph glyph-name="periodcentered" unicode="&#xb7;" horiz-adv-x="940" 
d="M518 764q54 0 92.5 -55t15.5 -96q-23 -42 -64.5 -69.5t-84.5 -32.5t-80 21t-45 84t10.5 80.5t47 34.5t59.5 18.5t49 14.5z" />
    <glyph glyph-name="cedilla" unicode="&#xb8;" horiz-adv-x="802" 
d="M478 -421q70 2 52 57t-48 59t-117 -16q-27 -5 -40 30t-28 74q-53 147 -10 266q43 11 67 -25q38 -57 48 -151t20 -117q106 29 184 -5q97 -40 84 -165q2 -55 -44 -86t-104 -35q-58 -3 -109 21t-61 77q-3 -1 -1 5q13 10 46 10t61 1z" />
    <glyph glyph-name="onesuperior" unicode="&#xb9;" horiz-adv-x="487" 
d="M375 1441v-203q0 -128 4 -128q41 -10 62.5 -28.5t18 -47.5t-97.5 -18q-25 0 -135 -2.5t-110 49.5q0 24 60 44.5t93 14.5q12 98 6 195q-18 -6 -30.5 -20.5t-35.5 -40t-52 -31.5q-15 -8 -62.5 15.5t-27.5 64.5q50 17 128.5 102t114.5 109q64 0 64 -75z" />
    <glyph glyph-name="ordmasculine" unicode="&#xba;" horiz-adv-x="813" 
d="M485 1049q77 61 75 166.5t-68 158t-152 -21.5q-58 -37 -53.5 -137.5t62.5 -162.5t136 -3zM340 1534q115 0 193.5 -50t120.5 -124t45.5 -158.5t-33.5 -152.5q-31 -70 -91.5 -125.5t-133 -71.5t-147.5 15.5t-134 138.5q-61 92 -61.5 203.5t61.5 205.5q24 52 81 85.5
t99 33.5z" />
    <glyph glyph-name="guillemotright" unicode="&#xbb;" 
d="M125 208q0 62 66 147q66 84 132 155t95 104q-15 17 -89 58q-75 40 -120 66q-165 93 -152 159q70 30 311 -81q136 -65 210 -135q34 -34 34 -64q-1 -59 -93 -186t-199 -213q-108 -87 -166 -56q-29 16 -29 46zM443 946q97 0 173 -44q22 -12 63 -32q193 -85 250 -133
q59 -49 77 -84t8 -69t-53 -99q-43 -66 -118 -151q-204 -233 -249 -207q-56 25 43 206q23 41 47 73t73 74q50 42 77 87q27 62 -6 85q-15 11 -60 26t-149 74q-105 59 -159 101q-120 93 -17 93z" />
    <glyph glyph-name="onequarter" unicode="&#xbc;" horiz-adv-x="1411" 
d="M264 1037q-37 -105 -69 -125t-69 52t-26.5 251t80.5 184q52 4 86.5 -126.5t-2.5 -235.5zM985 623q0 -6 -118.5 -118t-129.5 -155q83 -6 170.5 12.5t85.5 20.5q-8 33 -8 240zM844.5 188q-82.5 0 -146 21t-96.5 77t-30 105t27 94t62.5 87t81.5 79t84 68t80 61t93.5 75.5
t110.5 56.5t81 1t36.5 -39t-13 -87.5t-39.5 -81.5q-17 -64 1.5 -151t22.5 -87q8 -16 35 -16t56.5 1t58 -5.5t45.5 -39.5t-32 -75.5t-114 -63.5q0 -43 2 -62.5t-0.5 -37t-33.5 -90.5q-35 -66 -71 -68t-64.5 30t-49 84t-22.5 95q-83 -31 -165.5 -31zM217 260q-6 -6 -7 -5
q-44 -30 -77 -7t-39 74t13.5 107t49 112.5t63.5 107.5t76 119t103 163t95 154t54.5 108.5t46.5 92.5t53.5 59.5t55.5 -26.5t26.5 -101.5t-27.5 -149t-127.5 -267t-223.5 -317t-135 -224.5z" />
    <glyph glyph-name="onehalf" unicode="&#xbd;" horiz-adv-x="1263" 
d="M51 1070q4 52 0 95t-14 82t-11.5 86.5t74.5 91.5q35 -21 48.5 -56.5t21.5 -59t23 -47.5q16 -49 8.5 -229.5t-37.5 -180.5q-59 2 -83 37t-29 82t-1 99zM740 -27q-74 0 -110 37t-37 89.5t27.5 106.5t72.5 88t93.5 60.5t121 91.5t71.5 234q0 43 -34 48t-75 -13.5t-74.5 -55
t-33.5 -81.5q-20 -10 -38.5 11t-35.5 85.5t46 132.5t229 37q102 -20 145 -67.5t41.5 -136.5t-128 -247t-278.5 -256q47 0 94.5 8.5t126.5 22t148 -5.5q159 -59 160.5 -107.5t-47.5 -74.5q-73 15 -175 8.5t-169 -11t-141 -4.5zM248 270q-108 0 -80.5 180t147.5 419
t262.5 392.5t237.5 110.5q69 -85 -48.5 -252.5t-207.5 -287.5t-104 -151q-14 -30 -84.5 -206t-122.5 -205z" />
    <glyph glyph-name="threequarters" unicode="&#xbe;" horiz-adv-x="1216" 
d="M377 855q-42 -25 -117 -42q-215 0 -231 82q-25 83 90.5 69t148.5 -10t37 23q0 16 -36 40.5t-75.5 52.5t-68.5 57.5t-14 56.5q14 20 40.5 24t55.5 8.5t57.5 18.5t48.5 57q11 78 -24 83t-62.5 0t-74.5 -12t-56 26q-20 45 13.5 67.5t89 26.5t116 -5.5t97.5 -27.5
q72 -35 77.5 -109t-63.5 -124q-24 -19 -84 -39t-76 -35q4 -6 30 -19.5t78 -56.5t48 -115q-3 -72 -45 -97zM870 606q0 -6 -80 -105.5t-90 -138.5q111 -8 146 -2.5t33 7.5q-9 37 -9 239zM1041 416h66q66 0 93 -55.5t-40.5 -78t-92.5 -30.5q0 -88 -5 -143.5t-34 -75.5
q-58 -65 -93 -1.5t-40 171.5q-66 -25 -154 -22t-145 19.5t-83 55.5q-44 66 63.5 221.5t214.5 247.5q29 27 100 95.5t127 57.5q57 -12 71 -56t-49 -134q-15 -56 -8.5 -164t9.5 -108zM274 211q-6 -6 -7 -5q-44 -30 -77 -7q-32 23 -38 73t13 107t49 113.5t63.5 108t75.5 119.5
t103.5 162.5t93.5 151.5t43 86t38 84t61.5 87.5t69.5 -23.5q84 -127 -50 -339t-171 -266.5t-61 -90.5t-56.5 -82t-86 -129t-63.5 -150z" />
    <glyph glyph-name="questiondown" unicode="&#xbf;" 
d="M624 1346q15 38 63 60t84 6t49 -51q13 -34 5 -70t-43 -48q-70 -29 -110 -15t-51 47q-12 32 3 71zM1102 -37q2 -1 3 -2zM1102 -37q0 -74 -122 -184t-215 -152q-176 -78 -408 6q-101 37 -183 101t-117 143q-96 199 17 396q49 87 128 157t167 113q98 39 165 48q68 9 89 26
q34 29 12 108q-37 137 13 228q32 59 69 85t90 27q62 -21 105 -358q14 -109 18 -157t-23 -75t-98 -30q-70 -3 -148 -8t-122 -38q-101 -71 -151 -157t-49 -171t51 -156t134 -101t164 -20q81 9 200 87t154 90t60 -8z" />
    <glyph glyph-name="Agrave" unicode="&#xc0;" horiz-adv-x="1185" 
d="M349 1486q-30 73 39 68q69 -4 154 -46t125 -103q19 -31 15 -62q-17 -44 -93 -33q-76 10 -149 73q-74 63 -91 103zM463 670q0 -74 -2 -123q23 -8 181 -5q159 3 159 15q-6 75 -114 291q-67 127 -106 158q-39 32 -57 20q-61 -40 -61 -356zM1040 -145q-45 -7 -59 29
q-13 36 -29 103t-33 175t-65 225q-8 16 -73 6t-152 -9t-133 -8q-47 -9 -47 -11q-3 -35 -9 -100q-13 -156 -80 -233q-37 -44 -100 -38q-29 2 -40 55t-15 121t-2 129t2 80q-102 14 -138 36q-36 23 -24 45q25 47 182 75q7 65 17 155q39 369 182 488q65 52 187 -11t190 -202
q53 -94 104 -233q51 -140 62 -167q2 -16 37 -17q34 -1 74 1t71 0t25 -23q-4 -32 -158 -88q-28 -10 -29 -12q23 -117 45 -217t35 -176q26 -164 -27 -178z" />
    <glyph glyph-name="Aacute" unicode="&#xc1;" horiz-adv-x="1085" 
d="M349 1274q-30 0 -40 19t21 69t82 95q51 46 108 73t98 2q38 -34 5 -88t-87 -95q-53 -40 -105 -57q-52 -18 -82 -18zM463 670q0 -74 -2 -123q23 -8 181 -5q159 3 159 15q-6 75 -114 291q-67 127 -106 158q-39 32 -57 20q-61 -40 -61 -356zM1040 -145q-45 -7 -59 29
q-13 36 -29 103t-33 175t-65 225q-8 16 -73 6t-152 -9t-133 -8q-47 -9 -47 -11q-3 -35 -9 -100q-13 -156 -80 -233q-37 -44 -100 -38q-29 2 -40 55t-15 121t-2 129t2 80q-102 14 -138 36q-36 23 -24 45q25 47 182 75q7 65 17 155q39 369 182 488q65 52 187 -11t190 -202
q53 -94 104 -233q51 -140 62 -167q2 -16 37 -17q34 -1 74 1t71 0t25 -23q-4 -32 -158 -88q-28 -10 -29 -12q23 -117 45 -217t35 -176q26 -164 -27 -178z" />
    <glyph glyph-name="Acircumflex" unicode="&#xc2;" horiz-adv-x="1187" 
d="M502 1386q-25 -29 -51 -68q-45 -67 -107 -74q-49 -5 -26 80q22 85 53 136q36 86 74 98q39 12 122 -30q29 -16 70 -58t74 -87q82 -114 39 -142t-124 43q-34 30 -66 60t-58 42zM463 670q0 -74 -2 -123q23 -8 181 -5q159 3 159 15q-6 75 -114 291q-67 127 -106 158
q-39 32 -57 20q-61 -40 -61 -356zM1040 -145q-45 -7 -59 29q-13 36 -29 103t-33 175t-65 225q-8 16 -73 6t-152 -9t-133 -8q-47 -9 -47 -11q-3 -35 -9 -100q-13 -156 -80 -233q-37 -44 -100 -38q-29 2 -40 55t-15 121t-2 129t2 80q-102 14 -138 36q-36 23 -24 45
q25 47 182 75q7 65 17 155q39 369 182 488q65 52 187 -11t190 -202q53 -94 104 -233q51 -140 62 -167q2 -16 37 -17q34 -1 74 1t71 0t25 -23q-4 -32 -158 -88q-28 -10 -29 -12q23 -117 45 -217t35 -176q26 -164 -27 -178z" />
    <glyph glyph-name="Atilde" unicode="&#xc3;" horiz-adv-x="1185" 
d="M454 1432q-39 0 -48 -50q-6 -25 -29 -38t-47 -4t-29.5 33t-2.5 43q8 49 50 99t87 50q46 0 68.5 -6.5t40 -18.5t33 -30.5t39.5 -44.5t43 -24.5t34.5 13.5t27.5 28.5t20 20.5q38 -43 15 -125q-6 -27 -19.5 -45t-53.5 -30q-79 -24 -131 47q-53 70 -64.5 76t-33.5 6z
M463 669.5q0 -73.5 -2 -122.5q23 -8 181.5 -5t158.5 15q-7 88 -94 253t-126 196.5t-61 16.5t-35.5 -74.5t-17.5 -132.5t-4 -146.5zM1040 -145q-45 -8 -58.5 28.5t-29.5 103.5t-33.5 175t-64.5 225q-8 16 -72.5 6t-129.5 -9q-97 1 -150 -7.5t-53 -11.5q-4 -35 -9.5 -99.5
t-37.5 -173t-142 -98.5q-29 2 -40 55t-15 121t-2 129t2 80q-102 14 -138 35.5t-17 56.5t175 64q8 66 32 294t167 349q64 52 185.5 -9.5t191.5 -203.5q48 -85 101.5 -229t64.5 -171q2 -16 36.5 -17t74.5 1t71 0t25 -23q-4 -31 -95.5 -64.5t-91.5 -35.5q23 -117 45.5 -217
t41.5 -220t-34 -134z" />
    <glyph glyph-name="Adieresis" unicode="&#xc4;" horiz-adv-x="1187" 
d="M463 670q0 -74 -2 -123q23 -8 181 -5q159 3 159 15q-6 75 -114 291q-67 127 -106 158q-39 32 -57 20q-61 -40 -61 -356zM1040 -145q-45 -7 -59 29q-13 36 -29 103t-33 175t-65 225q-8 16 -73 6t-152 -9t-133 -8q-47 -9 -47 -11q-3 -35 -9 -100q-13 -156 -80 -233
q-37 -44 -100 -38q-29 2 -40 55t-15 121t-2 129t2 80q-102 14 -138 36q-36 23 -24 45q25 47 182 75q7 65 17 155q39 369 182 488q65 52 187 -11t190 -202q53 -94 104 -233q51 -140 62 -167q2 -16 37 -17q34 -1 74 1t71 0t25 -23q-4 -32 -158 -88q-28 -10 -29 -12
q23 -117 45 -217t35 -176q26 -164 -27 -178zM322 1548q33 0 55 -49q8 -12 39 -39t44 -46t8 -47t-29 -43q-48 -30 -117 5t-80 111q-5 27 4 56q-5 -10 -12 -18q1 3 20 40h1q34 30 67 30zM640 1491q0 5 2 11q18 36 46 38t54 -18q24 -20 36 -54t-5 -70q-17 -34 -42 -35
q-51 -2 -81 76q-10 25 -10 46v6z" />
    <glyph glyph-name="Aring" unicode="&#xc5;" horiz-adv-x="1175" 
d="M573 1270q35 27 41.5 70.5t-9 79.5t-47.5 49.5t-71 -21.5q-27 -18 -30.5 -58t10.5 -76t41.5 -53.5t64.5 9.5zM463 669.5q0 -73.5 -2 -122.5q23 -8 181.5 -5t158.5 15q-7 88 -94 253t-126 196.5t-61 16.5t-35.5 -74.5t-17.5 -132.5t-4 -146.5zM346 1364q0 66 35 121
q16 35 53 52t53 17q126 0 167.5 -72.5t44 -122.5t-20.5 -89q-23 -47 -64 -82q124 -68 187 -223q48 -85 101.5 -229t64.5 -171q2 -16 36.5 -17t74.5 1t71 0t25 -23q-4 -31 -95.5 -64.5t-91.5 -35.5q23 -117 45.5 -217t41.5 -220t-34 -134q-45 -8 -58.5 28.5t-29.5 103.5
t-33.5 175t-64.5 225q-8 16 -69.5 8t-163.5 -18q-172 -5 -172 -12q-4 -35 -9.5 -99.5t-37.5 -173t-142 -98.5q-29 2 -40 55t-15 121t-2 129t2 80q-102 14 -138 35.5t-17 56.5t175 64q8 66 33 304.5t162 354.5q-23 23 -39 53q-35 51 -35 117z" />
    <glyph glyph-name="AE" unicode="&#xc6;" horiz-adv-x="1519" 
d="M696 1149q-57 -38 -115 -276q-13 -52 -22 -80q25 2 68 -3t66 2t33 20q10 12 9 52q0 40 -14 151q-14 112 -25 134zM223 608q-1 9 -79 20t-112 22t-28 32q16 70 120 88q42 8 83 7t60 0t90 174q72 173 115 255q42 82 102 151t114 59q55 -10 131 -101q8 -12 189 16
q180 29 244 34q147 11 155 -22q6 -23 -41 -45q-96 -46 -197 -69q-102 -22 -131 -29q-53 -10 -71 -57q-17 -47 -19 -109t6 -132q8 -69 9 -120q-1 -2 25 0t98 4t118 -8t115 -5t111 -9q-30 -97 -242 -132q-55 -9 -131 -18t-76 -16q0 -52 -1 -114q-4 -245 42 -269
q68 -41 130 -34t122 25t118 27q60 8 119 -32q10 -10 -12 -62q-23 -52 -39 -61q-94 -81 -242 -64q-148 16 -211 25q-244 32 -259 180q-6 55 -15 203t-14 176q-6 23 -154 11q-37 -3 -67 -5q-4 0 -20 -46t-44 -128q-29 -82 -74 -229q-34 -93 -81 -145t-83 -62t-71 34t29 283
q16 63 42 166q26 104 27 131z" />
    <glyph glyph-name="Ccedilla" unicode="&#xc7;" 
d="M571 -406q18 8 47 12q122 15 113 113q-11 62 -58 66q-22 2 -63 -3t-58 1q-16 6 -22 32q-6 27 -15 49q-32 80 -19 148q-137 29 -238 125q-274 263 -214 706q39 287 198 414q160 127 352 104q152 -16 276 -112q84 -60 109 -91q60 -75 -41 -79q-79 -3 -180 26t-166 30
q-236 0 -291 -322q-65 -398 29 -567q41 -74 131 -80q167 -12 409 205q6 6 48 58t104 83q64 31 35 -119t-43 -168q-41 -53 -92 -104q-111 -111 -289 -115q8 -57 5 -93t3 -63q108 10 190 -38q82 -47 52 -168q-5 -54 -55 -92t-107 -47t-103 11t-47 78z" />
    <glyph glyph-name="Egrave" unicode="&#xc8;" horiz-adv-x="847" 
d="M631 825q-45 29 -87 4.5t-95 -73.5q99 8 145.5 35.5t36.5 33.5zM778.5 260q18.5 -12 10 -43t-55 -91t-152.5 -97t-206.5 -41.5t-202.5 51.5q-150 75 -179 196t27.5 243t163.5 220q-185 83 -176.5 246t103 261t161 134.5t123.5 32.5t115.5 -26.5t103.5 -53t66.5 -61.5
t5.5 -45t-40.5 -4t-97 38t-175.5 24q-102 -5 -145.5 -69.5t-48.5 -144.5t12.5 -125t41 -70.5t45 -36t25.5 -5.5q146 118 295 135.5t168 -94.5q-7 -104 -199 -149.5t-194 -47.5q-47 -35 -95.5 -80t-69.5 -111q-40 -127 65 -196.5t268 -36.5q27 4 60.5 16.5t67 23.5t62.5 15
t47.5 -8zM234.5 1599q-15.5 35 -3 49.5t61.5 5.5t101 -35t91 -62.5t33 -77.5q-14 -41 -78.5 -30.5t-127 63t-78 87.5z" />
    <glyph glyph-name="Eacute" unicode="&#xc9;" horiz-adv-x="843" 
d="M631 825q-45 29 -87 4.5t-95 -73.5q99 8 145.5 35.5t36.5 33.5zM778.5 260q18.5 -12 10 -43t-55 -91t-152.5 -97t-206.5 -41.5t-202.5 51.5q-150 75 -179 196t27.5 243t163.5 220q-185 83 -176.5 246t103 261t161 134.5t123.5 32.5t115.5 -26.5t103.5 -53t66.5 -61.5
t5.5 -45t-40.5 -4t-97 38t-175.5 24q-102 -5 -145.5 -69.5t-48.5 -144.5t12.5 -125t41 -70.5t45 -36t25.5 -5.5q146 118 295 135.5t168 -94.5q-7 -104 -199 -149.5t-194 -47.5q-47 -35 -95.5 -80t-69.5 -111q-40 -127 65 -196.5t268 -36.5q27 4 60.5 16.5t67 23.5t62.5 15
t47.5 -8zM336.5 1432q-37.5 0 -46.5 16t17.5 57t67.5 79t89 60.5t83 2.5q28 -28 -4.5 -83t-100.5 -93.5t-105.5 -38.5z" />
    <glyph glyph-name="Ecircumflex" unicode="&#xca;" horiz-adv-x="847" 
d="M631 825q-45 29 -87 4.5t-95 -73.5q99 8 145.5 35.5t36.5 33.5zM778.5 260q18.5 -12 10 -43t-55 -91t-152.5 -97t-206.5 -41.5t-202.5 51.5q-150 75 -179 196t27.5 243t163.5 220q-185 83 -176.5 246t103 261t161 134.5t123.5 32.5t115.5 -26.5t103.5 -53t66.5 -61.5
t5.5 -45t-40.5 -4t-97 38t-175.5 24q-102 -5 -145.5 -69.5t-48.5 -144.5t12.5 -125t41 -70.5t45 -36t25.5 -5.5q146 118 295 135.5t168 -94.5q-7 -104 -199 -149.5t-194 -47.5q-47 -35 -95.5 -80t-69.5 -111q-40 -127 65 -196.5t268 -36.5q27 4 60.5 16.5t67 23.5t62.5 15
t47.5 -8zM362 1534q-37 -41 -62.5 -74t-66.5 -37q-41 14 -24.5 69.5t53.5 92.5q44 55 80 70t113 -53.5t94.5 -114t-1 -56t-43 1t-49 31t-49.5 41t-45 29.5z" />
    <glyph glyph-name="Edieresis" unicode="&#xcb;" horiz-adv-x="847" 
d="M631 825q-45 29 -87 4.5t-95 -73.5q99 8 145.5 35.5t36.5 33.5zM778.5 260q18.5 -12 10 -43t-55 -91t-152.5 -97t-206.5 -41.5t-202.5 51.5q-150 75 -179 196t27.5 243t163.5 220q-185 83 -176.5 246t103 261t161 134.5t123.5 32.5t115.5 -26.5t103.5 -53t66.5 -61.5
t5.5 -45t-40.5 -4t-97 38t-175.5 24q-102 -5 -145.5 -69.5t-48.5 -144.5t12.5 -125t41 -70.5t45 -36t25.5 -5.5q146 118 295 135.5t168 -94.5q-7 -104 -199 -149.5t-194 -47.5q-47 -35 -95.5 -80t-69.5 -111q-40 -127 65 -196.5t268 -36.5q27 4 60.5 16.5t67 23.5t62.5 15
t47.5 -8zM214 1624q30 0 46 -41q11 -14 49.5 -48t34.5 -60q-10 -47 -51 -54.5t-80 14t-59 61.5t-7 82l-10 -15l18 34q29 27 59 27zM556 1464q-34 0 -59 66q-8 20 -9 38l1 7q0 4 1 9t1 2q16 30 40 31t45.5 -16.5t31.5 -46t-4 -59.5t-48 -31z" />
    <glyph glyph-name="Igrave" unicode="&#xcc;" horiz-adv-x="645" 
d="M180 506.5q0 103.5 1 145.5t2 105.5t7.5 274t51.5 203.5q78 -10 121 -72.5t64.5 -151.5t27.5 -190t8 -173t-4 -147t-28.5 -197t-64 -225.5t-79.5 -92.5q-66 15 -86.5 216t-20.5 304.5zM271.5 1384q-56.5 48 -96.5 96.5t-18 76.5t112.5 1t164 -84.5t62.5 -113.5
q-18 -44 -93 -34t-131.5 58z" />
    <glyph glyph-name="Iacute" unicode="&#xcd;" horiz-adv-x="618" 
d="M159 1362q-9 16 17.5 57t67.5 79t89 60.5t83 2.5q28 -28 -4.5 -83.5t-101.5 -93.5t-105.5 -38t-45.5 16zM168 548.5q0 61.5 1 103.5t2 105.5t7.5 273.5t50.5 204q78 -10 121 -72.5t66.5 -160.5t36.5 -365q0 -202 -58.5 -435.5t-120.5 -215.5q-86 19 -96 260t-10 302.5z
" />
    <glyph glyph-name="Icircumflex" unicode="&#xce;" horiz-adv-x="618" 
d="M274 1491q-37 -41 -62.5 -74t-66.5 -37q-41 14 -24.5 69.5t53.5 92.5q44 55 80 70t113 -53.5t94.5 -114t-1 -56t-43 1t-49 31t-49.5 41t-45 29.5zM168 548.5q0 61.5 1 103.5t2 105.5t7.5 273.5t50.5 204q78 -10 121 -72.5t66.5 -160.5t36.5 -365q0 -202 -58.5 -435.5
t-120.5 -215.5q-86 19 -96 260t-10 302.5z" />
    <glyph glyph-name="Idieresis" unicode="&#xcf;" horiz-adv-x="620" 
d="M168 548.5q0 61.5 1 103.5t2 105.5t7.5 273.5t50.5 204q78 -10 121 -72.5t66.5 -160.5t36.5 -365q0 -202 -58.5 -435.5t-120.5 -215.5q-86 19 -96 260t-10 302.5zM104 1624q29 0 46 -41q13 -17 50.5 -50.5t32.5 -57.5q-10 -47 -51 -54.5t-80.5 14t-59.5 61.5t-6 82l-4 -8
l-5 -7l18 34q30 27 59 27zM445.5 1464q-34.5 0 -59.5 66q-8 20 -8 38q0 -2 -1 -4q-1 12 9 32t34 21t45.5 -16.5t32 -46t-3.5 -59.5t-48.5 -31z" />
    <glyph glyph-name="Eth" unicode="&#xd0;" horiz-adv-x="1130" 
d="M121 189.5q0 233.5 -2 246.5t-2 21q-83 -22 -101 2q-45 52 99 207l8 344q0 25 -5 64.5t-9.5 83.5t-4.5 145t113 90q45 -5 155 14t168 11q95 -12 217.5 -80t194.5 -142q175 -190 176.5 -386t-33.5 -305t-85 -171q-92 -113 -209 -177.5t-238 -76.5q-20 -4 -80.5 -4
t-60.5 30.5t37 43t140 46.5t175 109q72 78 116 199t34 266q-4 117 -81.5 261.5t-184.5 190.5t-158 38.5t-77 -35t-24 -90.5l9 -291q98 10 130.5 -1.5t45.5 -27.5q34 -85 -172 -205q0 -196 -12 -286q-23 -180 -49.5 -267t-82.5 -94q-147 -7 -147 226.5z" />
    <glyph glyph-name="Ntilde" unicode="&#xd1;" 
d="M926 1080q0 -228 82 -414q0 -484 -62 -611q-79 -166 -225.5 -27.5t-239.5 353.5q-79 197 -141 455q-35 131 -66 270q-33 -164 -4 -432t38.5 -337t12.5 -104t-1.5 -90t-21.5 -99t-52 -57.5t-94 40.5q-156 122 -83 616.5t89 546t47 120t84.5 77.5t109.5 -121
q55 -131 210.5 -479.5t168.5 -495.5q32 410 27 503q-10 205 10 401t68 191q23 -2 33 -40t10 -266zM444 1569q-40 0 -49 -49q-6 -25 -28.5 -38.5t-46.5 -3.5q-43 17 -31 74q8 82 61 116t87 34t56.5 -6t40 -18.5t33 -31t39.5 -44.5t43 -24.5t34 14t27.5 28.5t20.5 20
q39 -43 14 -124q-6 -27 -19 -45.5t-53 -30.5q-79 -24 -132 48q-54 72 -64.5 76.5t-32.5 4.5z" />
    <glyph glyph-name="Ograve" unicode="&#xd2;" 
d="M524 1260q-72 30 -142 -76q-28 -42 -48 -88q-20 -47 -37 -79q-42 -85 -62 -250q-38 -320 7 -469q58 -193 223 -134q220 74 270 479q20 191 -44 370q-65 180 -167 247zM29 622q0 154 39 304t100 268q27 53 85 100t132 72q178 60 297 -31q47 -33 106 -139q14 -26 33 -51
q201 -281 169 -609q-14 -134 -58 -238q-45 -104 -88 -155q-100 -130 -289 -150q-188 -20 -309 93q-117 100 -167 242t-50 294zM682 1503q-28 -69 -160 -13q-81 35 -141 109t-38 101t88 8q173 -49 236 -143q19 -31 15 -62z" />
    <glyph glyph-name="Oacute" unicode="&#xd3;" 
d="M524 1260q-72 30 -142 -76q-28 -42 -48 -88q-20 -47 -37 -79q-42 -85 -62 -250q-38 -320 7 -469q58 -193 223 -134q220 74 270 479q20 191 -44 370q-65 180 -167 247zM29 622q0 154 39 304t100 268q27 53 85 100t132 72q178 60 297 -31q47 -33 106 -139q14 -26 33 -51
q201 -281 169 -609q-14 -134 -58 -238q-45 -104 -88 -155q-100 -130 -289 -150q-188 -20 -309 93q-117 100 -167 242t-50 294zM349 1456q-30 0 -40 20t21 68q31 49 82 95t108 73t98 2q38 -34 5 -88t-87 -95q-53 -40 -105 -57q-52 -18 -82 -18z" />
    <glyph glyph-name="Ocircumflex" unicode="&#xd4;" 
d="M524 1260q-72 30 -142 -76q-28 -42 -48 -88q-20 -47 -37 -79q-42 -85 -62 -250q-38 -320 7 -469q58 -193 223 -134q220 74 270 479q20 191 -44 370q-65 180 -167 247zM29 622q0 154 39 304t100 268q27 53 85 100t132 72q178 60 297 -31q47 -33 106 -139q14 -26 33 -51
q201 -281 169 -609q-14 -134 -58 -238q-45 -104 -88 -155q-100 -130 -289 -150q-188 -20 -309 93q-117 100 -167 242t-50 294zM502 1593q-25 -29 -51 -68q-45 -67 -107 -74q-49 -5 -26 80q22 85 53 136q36 86 75 98q39 11 121 -30q29 -15 70 -57t74 -88q82 -114 39 -142
t-124 43q-34 29 -66 59t-58 43z" />
    <glyph glyph-name="Otilde" unicode="&#xd5;" 
d="M433 1563q-39 0 -48 -50q-6 -25 -28.5 -38t-47.5 -4t-30 33t-1 43q10 53 51.5 101t86.5 48t67.5 -6.5t40 -18.5t32.5 -30.5t39 -44.5t43 -24.5t34.5 13.5t28 28.5t20.5 20.5q39 -43 14 -125q-6 -27 -19.5 -45t-53.5 -30q-79 -24 -132 47t-64 76.5t-33 5.5zM333.5 1096
q-20.5 -47 -36.5 -79t-36.5 -118t-33 -192.5t-11.5 -216t25.5 -192.5t78 -125t133.5 -14t128 81t90.5 144.5t58.5 223.5q26 224 -39 406t-167 246q-72 30 -121 -43.5t-69.5 -120.5zM29 621.5q0 152.5 38.5 303t100.5 269.5q27 53 85 100t182.5 89t246.5 -48q47 -31 84 -97.5
t55 -92.5q202 -281 179 -512.5t-68 -335t-88 -154.5q-100 -130 -288.5 -150t-309.5 93q-117 100 -167 241.5t-50 294z" />
    <glyph glyph-name="Odieresis" unicode="&#xd6;" 
d="M524 1260q-72 30 -142 -76q-28 -42 -48 -88q-20 -47 -37 -79q-42 -85 -62 -250q-38 -320 7 -469q58 -193 223 -134q220 74 270 479q20 191 -44 370q-65 180 -167 247zM29 622q0 154 39 304t100 268q27 53 85 100t132 72q178 60 297 -31q47 -33 106 -139q14 -26 33 -51
q201 -281 169 -609q-14 -134 -58 -238q-45 -104 -88 -155q-100 -130 -289 -150q-188 -20 -309 93q-117 100 -167 242t-50 294zM319 1628q29 0 46 -41q8 -10 36 -36q49 -46 48 -72q-9 -47 -51 -55t-81 15q-39 22 -59 61t-7 82l-4 -8l-5 -7l18 34q30 27 59 27zM672 1468
q-44 0 -71 66q-8 20 -8 38q0 -2 -1 -4q0 12 10 32t34 21t46 -16t31 -46q10 -29 -4 -60t-37 -31z" />
    <glyph glyph-name="multiply" unicode="&#xd7;" horiz-adv-x="1224" 
d="M1186 1041q0 -30 -35 -85q-114 -180 -270 -397q-16 -25 209 -214q50 -43 74 -71t50 -84t30 -98q4 -43 -26 -55t-112 37q-39 28 -89 64q-240 175 -292 204q-6 0 -34 -30q-234 -251 -382 -288q-51 -14 -90 9q3 87 59 189q55 102 113 182q58 81 74 105t12 30
q-145 145 -360 340q-31 31 2 61t89 23q56 -6 137 -52t173 -120t115 -99q39 39 70 73q32 35 63 67t63 66q33 34 59 60t77 56q52 31 114 50q63 19 85 13t22 -36z" />
    <glyph glyph-name="Oslash" unicode="&#xd8;" horiz-adv-x="1284" 
d="M698 1220q-114 32 -208 -80q-177 -214 -181 -568q0 -103 19 -195q121 186 234 383q114 197 243 383q-2 12 -32 38t-75 39zM1016 545q35 101 35 235q0 212 -76 271q-26 9 -367 -483q-66 -95 -108 -180q-43 -86 -111 -175q59 -63 123 -79t162 11q117 25 210 146
q94 122 132 254zM1264 516q-58 -265 -311 -408q-229 -129 -455 -79q-86 18 -138 44t-55 23q0 -4 -17 -30t-44 -53q-70 -72 -121 -52q-40 20 74 240q2 2 -9 21q-61 116 -65 237q-14 192 -1 296q25 197 112 337q168 269 501 227q35 4 110 -22t81 -23q42 64 111 128t111 91
t62 8q59 -15 -31 -157q-99 -154 -94 -162q27 -16 67 -78t73 -156q82 -230 39 -432z" />
    <glyph glyph-name="Ugrave" unicode="&#xd9;" 
d="M271 1251q40 -89 58 -282q17 -193 32 -303q37 -268 114 -379q79 -110 170 -16q80 82 99 184t51 325t52 307q41 162 95 158q40 5 29 -161t-5 -337q6 -170 -6 -260t-29 -176q-17 -85 -55 -157q-88 -165 -272 -162q-240 4 -374 203q-108 162 -140 440q-24 207 -1 452
q9 96 24 162q14 66 24 80q81 46 134 -78zM398 1578q-30 71 38 69q65 -4 153 -46t127 -104q19 -31 15 -61q-18 -45 -93 -34q-75 10 -149 73t-91 103z" />
    <glyph glyph-name="Uacute" unicode="&#xda;" 
d="M222 1279q55 -33 84 -155q14 -60 27 -204t28 -254q37 -268 114 -379q79 -110 170 -16q80 82 99 184t51 325t52 307q41 162 95 158q40 5 29 -161t-5 -337q6 -170 -6 -260t-29 -176q-17 -85 -55 -157q-88 -165 -272 -162q-238 4 -375 202q-109 160 -140 402q-31 243 -4 465
q11 90 28 147q16 57 30 64q47 27 79 7zM439 1352q-30 0 -40 19t21 69t82 95q132 119 207 75q36 -32 4 -87t-84 -95q-53 -40 -107 -58q-53 -18 -83 -18z" />
    <glyph glyph-name="Ucircumflex" unicode="&#xdb;" 
d="M271 1251q40 -89 58 -282q17 -193 32 -303q37 -268 114 -379q79 -110 170 -16q80 82 99 184t51 325t52 307q41 162 95 158q40 5 29 -161t-5 -337q6 -170 -6 -260t-29 -176q-17 -85 -55 -157q-88 -165 -272 -162q-240 4 -374 203q-108 162 -140 440q-24 207 -1 452
q9 96 24 162q14 66 24 80q81 46 134 -78zM543 1585q-25 -29 -51 -68t-53 -55t-54 -19t-30 23q-6 52 20 114q26 61 37 79q36 85 76 97t120 -30q29 -16 70 -57t74 -87q82 -114 39 -142t-124 43q-33 29 -65 59t-59 43z" />
    <glyph glyph-name="Udieresis" unicode="&#xdc;" 
d="M271 1251q40 -89 58 -282q17 -193 32 -303q37 -268 114 -379q79 -110 170 -16q80 82 99 184t51 325t52 307q41 162 95 158q40 5 29 -161t-5 -337q6 -170 -6 -260t-29 -176q-17 -85 -55 -157q-88 -165 -272 -162q-240 4 -374 203q-108 162 -140 440q-24 207 -1 452
q9 96 24 162q14 66 24 80q81 46 134 -78zM412 1591q30 0 45 -41q8 -10 36 -36q49 -46 48 -72q-9 -47 -51 -54q-42 -8 -80 14t-60 62q-21 40 -7 82q-6 -11 -9 -16q0 2 16 33q2 3 2 1q30 27 60 27zM685 1536q0 -2 -1 -5q0 13 10 33t34 20q24 1 46 -16t31 -46q10 -29 -4 -60
q-14 -30 -37 -30q-44 1 -71 65q-8 20 -8 39z" />
    <glyph glyph-name="Yacute" unicode="&#xdd;" horiz-adv-x="958" 
d="M160 1380q59 4 127 -105t81 -224q20 -183 103 -246q37 -25 76 -19q47 104 73 174t62 166q35 96 47 183q2 37 34 38q31 1 67 -28t61 -86t15 -136q-32 -238 -136 -488q-148 -353 -377 -523q-75 -54 -147 -74t-115 -10t-45 46t59 89q172 144 279 361q51 98 82 196
q-121 27 -236 126q-57 50 -93 122t-71 146q-78 164 -44 244q20 44 98 48zM405 1391q-41 0 -51 18q-10 17 19 65t77 91q123 110 197 69q35 -35 0 -90q-37 -66 -119 -109q-82 -44 -123 -44z" />
    <glyph glyph-name="Thorn" unicode="&#xde;" 
d="M574 1081q-52 0 -97 -34.5t-72.5 -87t-41 -113t-16.5 -112.5t3 -87t17 -35q149 0 252.5 38t148.5 79t37 96q-19 80 -63 140.5t-80 88t-88 27.5zM362 168q0 -246 -192 -178q-36 96 -51 612t-15 586t-1 138.5t20.5 163.5t136.5 42q62 -66 70 -216.5t14 -189.5
q184 68 287.5 73t173 -20.5t110.5 -97.5q33 -49 42.5 -135t-17.5 -174t-96.5 -158.5t-192.5 -87.5q-167 0 -237 -17t-70 -26q18 -69 18 -315z" />
    <glyph glyph-name="germandbls" unicode="&#xdf;" horiz-adv-x="1062" 
d="M497 -12q-84 0 -110.5 25.5t-20 56t42 58.5t97.5 35q118 13 161 62t48 135q0 119 -52.5 178.5t-84.5 72.5q-59 24 -113.5 77.5t-54.5 103.5t9 76.5t26.5 48t43 40.5t67.5 51q90 69 106 119.5t-25 150.5q-61 119 -143 111.5t-140 -141.5q-60 -139 -71 -316.5t-9 -268.5
t3 -157t18 -308.5t-21 -353.5q-6 -16 -35.5 -5t-91 60t-65.5 119q-18 252 -21.5 514.5t91 657t417.5 299.5q106 -35 182 -89t114 -165t-46 -209t-113.5 -131t-49 -57.5t-13.5 -34.5q6 -43 50 -78t97.5 -76t100.5 -95t59 -156t-20.5 -184.5t-99 -133.5t-158 -71.5
t-175.5 -20.5z" />
    <glyph glyph-name="agrave" unicode="&#xe0;" horiz-adv-x="1005" 
d="M438.5 1244.5q-57.5 47.5 -97.5 97t-18 76.5q23 27 113 0.5t162 -82.5t64 -115q-18 -44 -92 -34t-131.5 57.5zM354 205q62 0 130.5 96.5t68.5 135t-2 78.5t1 79t12 67.5t31.5 30.5t54.5 10.5t79.5 -2.5t40.5 -160t37 -262t114 -126t106 16t50.5 41t27.5 6t6 -34.5
t-52.5 -89.5t-147.5 -77t-197 29t-151 172q-37 -90 -111.5 -132t-146.5 -45t-135.5 44t-101 127t-40.5 185.5t38 201.5t94 149.5t113.5 87t121 49t108.5 17.5t77.5 -7.5t24.5 -31.5t-33.5 -38.5t-65.5 -35t-75.5 -41t-72.5 -70.5t-50.5 -130t-15.5 -157t18.5 -129t43.5 -54z
" />
    <glyph glyph-name="aacute" unicode="&#xe1;" horiz-adv-x="1007" 
d="M345 1156.5q-30 -0.5 -40 19.5t20.5 69t123 131.5t165.5 38.5q37 -33 4 -88t-70 -83q-36 -27 -70 -45.5t-68.5 -30t-64.5 -12zM354 205q62 0 130.5 96.5t68.5 135t-2 78.5t1 79t12 67.5t31.5 30.5t54.5 10.5t79.5 -2.5t40.5 -160t37 -262t114 -126t106 16t50.5 41t27.5 6
t6 -34.5t-52.5 -89.5t-147.5 -77t-197 29t-151 172q-37 -90 -111.5 -132t-146.5 -45t-135.5 44t-101 127t-40.5 185.5t38 201.5t94 149.5t113.5 87t121 49t108.5 17.5t77.5 -7.5t24.5 -31.5t-33.5 -38.5t-65.5 -35t-75.5 -41t-72.5 -70.5t-50.5 -130t-15.5 -157t18.5 -129
t43.5 -54z" />
    <glyph glyph-name="acircumflex" unicode="&#xe2;" horiz-adv-x="1005" 
d="M365 1321q-25 -29 -42.5 -54.5t-43 -54t-62.5 -32.5t-42.5 44.5t58.5 170.5q35 84 75 96.5t122 -29.5q29 -16 70 -57t73.5 -87t47 -87t-10 -57.5t-56.5 0t-65.5 45t-65 59.5t-58.5 43zM354 205q62 0 130.5 96.5t68.5 135t-2 78.5t1 79t12 67.5t31.5 30.5t54.5 10.5
t79.5 -2.5t40.5 -160t37 -262t114 -126t106 16t50.5 41t27.5 6t6 -34.5t-52.5 -89.5t-147.5 -77t-197 29t-151 172q-37 -90 -111.5 -132t-146.5 -45t-135.5 44t-101 127t-40.5 185.5t38 201.5t94 149.5t113.5 87t121 49t108.5 17.5t77.5 -7.5t24.5 -31.5t-33.5 -38.5
t-65.5 -35t-75.5 -41t-72.5 -70.5t-50.5 -130t-15.5 -157t18.5 -129t43.5 -54z" />
    <glyph glyph-name="atilde" unicode="&#xe3;" horiz-adv-x="1001" 
d="M354 205q62 0 130.5 96.5t68.5 135t-2 78.5t1 79t12 67.5t31.5 30.5t54.5 10.5t79.5 -2.5t40.5 -160t37 -262t114 -126t106 16t50.5 41t27.5 6t6 -34.5t-52.5 -89.5t-147.5 -77t-197 29t-151 172q-37 -90 -111.5 -132t-146.5 -45t-135.5 44t-101 127t-40.5 185.5
t38 201.5t94 149.5t113.5 87t121 49t108.5 17.5t77.5 -7.5t24.5 -31.5t-33.5 -38.5t-65.5 -35t-75.5 -41t-72.5 -70.5t-50.5 -130t-15.5 -157t18.5 -129t43.5 -54z" />
    <glyph glyph-name="adieresis" unicode="&#xe4;" horiz-adv-x="1001" 
d="M354 205q62 0 130.5 96.5t68.5 135t-2 78.5t1 79t12 67.5t31.5 30.5t54.5 10.5t79.5 -2.5t40.5 -160t37 -262t114 -126t106 16t50.5 41t27.5 6t6 -34.5t-52.5 -89.5t-147.5 -77t-197 29t-151 172q-37 -90 -111.5 -132t-146.5 -45t-135.5 44t-101 127t-40.5 185.5
t38 201.5t94 149.5t113.5 87t121 49t108.5 17.5t77.5 -7.5t24.5 -31.5t-33.5 -38.5t-65.5 -35t-75.5 -41t-72.5 -70.5t-50.5 -130t-15.5 -157t18.5 -129t43.5 -54zM299 1389q35 0 57 -50q8 -12 24.5 -26.5t45 -40.5t23.5 -59q-6 -33 -42 -56t-104.5 12t-82.5 111q-5 25 3 52
q-2 -5 -9 -14q1 3 19 40q31 31 66 31zM620 1331q0 5 2 11q18 36 46 38t52.5 -18.5t37 -54t-4.5 -68.5t-55 -36.5t-68 76.5q-10 25 -10 46l-2 -6z" />
    <glyph glyph-name="aring" unicode="&#xe5;" horiz-adv-x="1007" 
d="M537 1243q39 25 44 57.5t-10.5 58t-43 35t-52.5 -13.5q-37 -25 -43 -55.5t8.5 -54t41 -33.5t55.5 6zM487 1125.5q-107 -4.5 -151 66.5q-53 51 -63.5 125t40.5 151q23 49 72 70t90 18q90 -4 140.5 -42.5t78.5 -123.5t-36 -172q-64 -88 -171 -92.5zM354 205
q62 0 130.5 96.5t68.5 135t-2 78.5t1 79t12 67.5t31.5 30.5t54.5 10.5t79.5 -2.5t40.5 -160t37 -262t114 -126t106 16t50.5 41t27.5 6t6 -34.5t-52.5 -89.5t-147.5 -77t-197 29t-151 172q-37 -90 -111.5 -132t-146.5 -45t-135.5 44t-101 127t-40.5 185.5t38 201.5t94 149.5
t113.5 87t121 49t108.5 17.5t77.5 -7.5t24.5 -31.5t-33.5 -38.5t-65.5 -35t-75.5 -41t-72.5 -70.5t-50.5 -130t-15.5 -157t18.5 -129t43.5 -54z" />
    <glyph glyph-name="ae" unicode="&#xe6;" horiz-adv-x="1323" 
d="M383 461q-73 -73 -84 -174t78 -150q107 -42 133 142q14 112 0 249q-10 0 -48 -16t-79 -51zM975 791q-1 25 -43 49q-80 45 -127 16q-59 -71 -41 -174q4 -8 38 3t72 31t69 42q32 23 32 33zM851 1024q77 0 153 -39t112 -113q38 -67 13 -117t-79 -94q-55 -43 -97 -62t-79 -33
q-38 -14 -62 -25q-24 -10 -24 -19q-32 -72 -9 -222q15 -98 79 -143q32 -24 96 -20q132 8 257 224q75 134 128 124q15 -4 17 -46t-16 -102q-43 -147 -150 -251q-79 -88 -232 -115q-154 -27 -239 56q-53 35 -99 48t-110 -22q-121 -86 -266 -53q-61 14 -107 47q-45 33 -57 64
q-46 119 18 258q92 187 402 252q-14 139 -30 196q-36 132 -103 139q-39 -4 -62 -30t-41 -56q-18 -32 -36 -60t-54 -35q-76 -15 -132 35t-19 110q61 102 158 147q179 83 379 -91q85 -76 83 -106q11 78 71 116t137 38z" />
    <glyph glyph-name="ccedilla" unicode="&#xe7;" horiz-adv-x="921" 
d="M606 31q-4 1 -6 -17q-12 -109 -55 -207q-63 -152 -122 -165q-58 -14 -75 102q-21 105 66 244q16 27 16 37q-123 42 -232 115q-52 36 -89 92t-57 156q-40 214 34 409q37 96 102 155q170 138 408 62q139 -46 167 -75q29 -29 37 -51q21 -54 -40 -63q-50 -3 -127 47
q-29 18 -59 30t-80 3q-50 -10 -94 -56q-89 -92 -101 -251q-13 -159 46 -269q30 -56 77 -83q122 -66 221 -30q41 15 87 59t72 81q26 36 46 44q20 10 49 8q79 -4 -32 -182q-95 -152 -259 -195z" />
    <glyph glyph-name="egrave" unicode="&#xe8;" horiz-adv-x="798" 
d="M258 1340q-30 73 39 69q71 -5 154 -46q83 -42 127 -102q20 -30 14 -63q-18 -45 -93 -34q-75 10 -150 73t-91 103zM299 563q71 1 119 29q113 68 135 199q6 25 2 45q-145 -14 -200 -115q-56 -100 -56 -158zM752 391q14 0 18 -38q9 -89 -51 -214t-207 -163q-78 -19 -181 8
q-171 45 -253 237q-68 155 -49 307q10 139 86 265q60 106 175 156t249 46q61 -4 104 -42q90 -79 65 -224q-14 -69 -68 -143q-87 -118 -226 -162q-59 -18 -119 -14q-6 -115 30 -181q37 -78 123 -68q85 11 140 54t123 144q20 32 41 32z" />
    <glyph glyph-name="eacute" unicode="&#xe9;" horiz-adv-x="800" 
d="M306 1196q-30 0 -40 19t21 69t82 95q51 46 108 73t98 2q38 -34 5 -88t-87 -95q-53 -40 -105 -57q-52 -18 -82 -18zM299 563q71 1 119 29q113 68 135 199q6 25 2 45q-145 -14 -200 -115q-56 -100 -56 -158zM752 391q14 0 18 -38q9 -89 -51 -214t-207 -163q-78 -19 -181 8
q-171 45 -253 237q-68 155 -49 307q10 139 86 265q60 106 175 156t249 46q61 -4 104 -42q90 -79 65 -224q-14 -69 -68 -143q-87 -118 -226 -162q-59 -18 -119 -14q-6 -115 30 -181q37 -78 123 -68q85 11 140 54t123 144q20 32 41 32z" />
    <glyph glyph-name="ecircumflex" unicode="&#xea;" horiz-adv-x="798" 
d="M387 1307q-25 -29 -51 -69t-53 -55t-54 -19t-29 24q-5 49 20 112q25 62 36 80q36 86 76 98t113 -27q74 -39 153 -150t37 -139t-124 42q-33 29 -65 60t-59 43zM299 563q71 1 119 29q113 68 135 199q6 25 2 45q-145 -14 -200 -115q-56 -100 -56 -158zM752 391q14 0 18 -38
q9 -89 -51 -214t-207 -163q-78 -19 -181 8q-171 45 -253 237q-68 155 -49 307q10 139 86 265q60 106 175 156t249 46q61 -4 104 -42q90 -79 65 -224q-14 -69 -68 -143q-87 -118 -226 -162q-59 -18 -119 -14q-6 -115 30 -181q37 -78 123 -68q85 11 140 54t123 144
q20 32 41 32z" />
    <glyph glyph-name="edieresis" unicode="&#xeb;" horiz-adv-x="800" 
d="M299 563q71 1 119 29q113 68 135 199q6 25 2 45q-145 -14 -200 -115q-56 -100 -56 -158zM752 391q14 0 18 -38q9 -89 -51 -214t-207 -163q-78 -19 -181 8q-171 45 -253 237q-68 155 -49 307q10 139 86 265q60 106 175 156t249 46q61 -4 104 -42q90 -79 65 -224
q-14 -69 -68 -143q-87 -118 -226 -162q-59 -18 -119 -14q-6 -115 30 -181q37 -78 123 -68q85 11 140 54t123 144q20 32 41 32zM223 1456q33 0 56 -49q9 -14 41 -42q32 -29 44 -45t6 -45q-5 -28 -29 -43q-25 -15 -55 -13q-73 5 -116 63t-25 118q-1 -3 -9 -15q1 3 20 40v1
q34 30 67 30zM542 1398q0 6 2 12q18 36 46 38t54 -18q24 -20 36 -54t-5 -70q-17 -34 -42 -35q-51 -2 -81 76q-10 25 -10 45v6z" />
    <glyph glyph-name="igrave" unicode="&#xec;" horiz-adv-x="618" 
d="M173 1344q-31 73 39 69q70 -5 154 -46q84 -42 126 -103q20 -31 14 -62q-18 -45 -93 -34q-75 10 -149 72q-74 63 -91 104zM335 893q39 0 65 -24t17 -71t-15 -98q-14 -131 -12 -242q4 -243 83 -276q61 -25 101 0t84 80t73 48t-24 -123q-102 -221 -357 -171q-68 14 -108 66
q-71 91 -97 211q-10 47 -21 53t-33 -12q-23 -18 -57 -26t-42 14t14 52t37 49q74 100 82 287q4 95 17 122q13 26 39 31t70 17t84 13z" />
    <glyph glyph-name="iacute" unicode="&#xed;" horiz-adv-x="618" 
d="M476 1328q-38 -66 -135 -122q-74 -39 -118 -40q-45 -2 -55 18t20 69q31 49 82 95q50 46 108 74q58 26 99 1q38 -34 -1 -95zM335 893q39 0 65 -24t17 -71t-15 -98q-14 -131 -12 -242q4 -243 83 -276q61 -25 101 0t84 80t73 48t-24 -123q-102 -221 -357 -171
q-68 14 -108 66q-71 91 -97 211q-10 47 -21 53t-33 -12q-23 -18 -57 -26t-42 14t14 52t37 49q74 100 82 287q4 95 17 122q13 26 39 31t70 17t84 13z" />
    <glyph glyph-name="icircumflex" unicode="&#xee;" horiz-adv-x="618" 
d="M322 1329q-29 -25 -52 -45t-54 -44t-77 -17q-29 1 -25 27q8 55 45 108q38 53 50 69q53 76 94 80t113 -53q57 -46 112 -173t7 -144t-113 67q-27 35 -52 71t-48 54zM337 893q39 0 65 -24t17 -71t-15 -98q-14 -131 -12 -242q4 -243 83 -276q61 -25 101 0t84 80q43 55 73 48
t-24 -123q-102 -221 -357 -171q-68 14 -108 66q-71 91 -97 211q-10 47 -21 53t-33 -12q-23 -18 -57 -26t-42 14t14 52t37 49q74 100 82 287q4 95 17 122q13 26 39 31t70 17t84 13z" />
    <glyph glyph-name="idieresis" unicode="&#xef;" horiz-adv-x="608" 
d="M335 893q39 0 65 -24t17 -71t-15 -98q-14 -131 -12 -242q4 -243 83 -276q61 -25 101 0t84 80t73 48t-24 -123q-102 -221 -357 -171q-68 14 -108 66q-71 91 -97 211q-10 47 -21 53t-33 -12q-23 -18 -57 -26t-42 14t14 52t37 49q74 100 82 287q4 95 17 122q13 26 39 31
t70 17t84 13zM117 1427q33 0 55 -49q8 -12 24 -26q73 -62 68 -98q-11 -69 -84 -64t-116 63t-25 118q-2 -5 -9 -14q1 3 19 40h1q34 30 67 30zM435 1370q0 5 2 11q19 36 47 38t53 -18t37 -54t-6 -69q-17 -35 -42 -36q-24 -1 -46 21q-44 46 -45 101v6z" />
    <glyph glyph-name="eth" unicode="&#xf0;" horiz-adv-x="823" 
d="M514 860q-45 114 -145 209q-1 2 -9 -7q-57 -60 -139 -72q-47 -7 -69 8q-51 37 37 111q19 15 35 25t20 13q-4 4 -19 18q-74 74 -65 117q10 30 99 8q89 -23 106 -43q7 0 39 14t55 23q77 45 142 29q26 -7 40 -19t12 -20q-29 -39 -71 -70t-76 -55q41 -35 95 -82
q69 -61 110 -162q2 -4 15 -5q78 -6 118 -56q-16 -40 -73 -63q-9 -3 -7 -9q30 -88 30 -205q-1 -210 -47 -292q-91 -166 -181 -234q-90 -67 -260 -87q-171 -20 -220 149q-39 134 0 294q45 230 285 377q70 43 143 86zM425 185l14 15q7 8 1 0zM436 195q90 90 143 241t1 250
q-53 -35 -144 -80t-150 -105q-59 -59 -81 -115q-44 -111 -17 -200q21 -62 106 -51q84 10 142 60z" />
    <glyph glyph-name="ntilde" unicode="&#xf1;" 
d="M307.5 1370.5q53.5 63.5 125.5 63.5q73 0 104.5 -21.5t51 -44t47.5 -54.5t51.5 -30t42 16.5t33.5 34t25 25.5q43 -55 17 -152q-8 -33 -24.5 -55.5t-63.5 -36.5q-97 -29 -168 64q-23 29 -36 47t-25 31.5t-50 13.5q-48 0 -57 -60q-8 -29 -35.5 -45t-57.5 -5q-51 19 -38 91
q4 54 57.5 117.5zM254 844q12 0 17 -16.5t16.5 -73t7.5 -285.5q137 268 248 312t188.5 -12t94 -149t26.5 -222.5t23.5 -184.5t37 -94t64.5 -49t77 -1t67.5 24.5t55 26.5t33.5 5q8 -8 -9 -45t-89 -107t-216 -52q-145 19 -212.5 157.5t-77.5 361.5q-8 156 -57.5 160
t-124.5 -109q-75 -112 -87.5 -208.5t-15 -139.5t-11.5 -65q-16 -38 -110.5 -37.5t-122.5 27.5t-24.5 332.5t26.5 344.5t67 61.5t70 30t38 7.5z" />
    <glyph glyph-name="ograve" unicode="&#xf2;" horiz-adv-x="821" 
d="M565 1202q-28 -70 -159 -13q-83 36 -143 110q-59 73 -37 100t88 8q177 -50 236 -143q19 -31 15 -62zM322 700q-25 -25 -30 -129q-14 -290 46 -395q20 -37 49 -33q55 8 100 114t52 200q10 164 -43 218t-93 59t-81 -34zM561 879q178 -108 210 -305q33 -197 -72 -354
q-109 -165 -301 -169q-106 -2 -188 52q-159 106 -174 320t116 337q66 61 160 67q149 10 219 60q7 4 30 -8z" />
    <glyph glyph-name="oacute" unicode="&#xf3;" horiz-adv-x="821" 
d="M338 1186q-43 0 -53 19q-9 19 21 69t81 95q51 46 109 73t98 2q20 -18 17 -44q-11 -95 -175 -184q-55 -30 -98 -30zM322 700q-25 -25 -30 -129q-14 -290 46 -395q20 -37 49 -33q55 8 100 114t52 200q10 164 -43 218t-93 59t-81 -34zM561 879q178 -108 210 -305
q33 -197 -72 -354q-109 -165 -301 -169q-106 -2 -188 52q-159 106 -174 320t116 337q66 61 160 67q149 10 219 60q7 4 30 -8z" />
    <glyph glyph-name="ocircumflex" unicode="&#xf4;" horiz-adv-x="821" 
d="M381 1280q-27 -29 -46.5 -52.5t-48.5 -50t-64 -27.5q-36 -1 -37 24.5t16.5 76t45.5 102.5q27 52 46.5 74.5t50.5 29.5t111 -40q67 -41 137 -158.5t21 -143.5q-48 -26 -127.5 62.5t-104.5 102.5zM322 700q-25 -25 -30 -129t-1 -173.5t15 -127t31.5 -94.5t49.5 -33t55.5 38
t60 111.5t40 202t-46.5 179.5t-93 60t-81 -34zM561 879q178 -108 210.5 -305t-74.5 -358t-299 -165q-106 -2 -187.5 52.5t-124.5 138.5t-50 183t21.5 186t94 148.5t159.5 67.5t135 19.5t59.5 25t25.5 15.5t30 -8z" />
    <glyph glyph-name="otilde" unicode="&#xf5;" horiz-adv-x="821" 
d="M338 1300q-39 0 -47 -49q-6 -25 -28.5 -38t-47.5 -4t-30 33t-2 43q8 50 51 99.5t88 49.5t67.5 -6.5t39.5 -18.5t32.5 -30.5t39.5 -44.5t43 -24.5t34.5 13.5t27.5 28.5t21 20.5q38 -42 14 -125q-6 -27 -19.5 -45t-53.5 -30q-79 -24 -132 48q-53 71 -64.5 75.5t-33.5 4.5z
M322 700q-25 -25 -30 -129t-1 -173.5t15 -127t31.5 -94.5t49.5 -33t55.5 38t60 111.5t40 202t-46.5 179.5t-93 60t-81 -34zM561 879q178 -108 210.5 -305t-74.5 -358t-299 -165q-106 -2 -187.5 52.5t-124.5 138.5t-50 183t21.5 186t94 148.5t159.5 67.5t135 19.5t59.5 25
t25.5 15.5t30 -8z" />
    <glyph glyph-name="odieresis" unicode="&#xf6;" horiz-adv-x="821" 
d="M322 700q-25 -25 -30 -129q-14 -290 46 -395q20 -37 49 -33q55 8 100 114t52 200q10 164 -43 218t-93 59t-81 -34zM561 879q178 -108 210 -305q33 -197 -72 -354q-109 -165 -301 -169q-106 -2 -188 52q-159 106 -174 320t116 337q66 61 160 67q149 10 219 60q7 4 30 -8z
M219 1442q33 0 55 -49q8 -13 24 -27t45 -40q28 -26 26 -56q-15 -68 -87 -65q-72 4 -115 62q-43 59 -26 119l-4 -8l-5 -7q1 3 20 40v1q34 30 67 30zM538 1384q0 4 2 11q18 37 46 39t54 -18q24 -20 36 -55q12 -34 -5 -69t-42 -36t-47 21q-44 46 -44 101v6z" />
    <glyph glyph-name="divide" unicode="&#xf7;" horiz-adv-x="802" 
d="M408 98q-34 0 -58 20q-23 20 -28 55q-6 34 10 67q16 32 55 34t72 -16t46 -52t-25 -71t-72 -37zM383 995q82 -3 74 -87q-4 -32 -26 -58t-60 -30q-38 -3 -64 38q-25 41 -22 71q4 30 16 39q11 9 27 11t30 3t25 13zM784 563q-20 -47 -135 -47q-46 -15 -100 -51t-105 -39
q-51 -4 -114 -11q-148 -16 -238 23q-49 23 -57 74t45 80t177 48t330 -5q205 -23 197 -72z" />
    <glyph glyph-name="oslash" unicode="&#xf8;" horiz-adv-x="1097" 
d="M819 741q-68 -84 -117 -184t-104 -182q-65 -113 -8 -142q46 -22 155 13q55 29 104 92q48 63 62 145q0 108 -40 191q-15 33 -30 50q-16 17 -22 17zM360 705q-55 -95 -48 -199t104 -187q70 123 139 247q70 124 154 249q-13 0 -59 1q-110 2 -210 -40q-53 -22 -80 -71z
M1059 1237q49 -15 -78 -244q-31 -53 -51 -86q41 -35 84 -107q96 -160 79 -356q-9 -102 -71 -198q-104 -190 -322 -238q-139 -29 -266 0q-6 6 -22 -16q-90 -121 -142 -94q-23 20 -17 43q5 23 13 47t9 48t-25 44q-112 83 -148 203q-68 160 -21 338t169 286q172 141 467 87
q43 -7 67 -13t19 0q95 152 161 211t95 45z" />
    <glyph glyph-name="ugrave" unicode="&#xf9;" 
d="M574 1062q-91 -26 -217 79q-65 54 -82 95q-30 71 38 69q65 -4 153 -46t127 -104q19 -31 15 -61q-10 -25 -34 -32zM285 614q0 -374 102 -368q46 0 102 110t83 217q28 107 28 111q2 25 39 44q85 44 165 12q40 -15 45 -52t3 -93t-5 -123q-8 -175 16 -264q35 -130 136 -126
q74 3 114 59q15 21 29 33t40 0q6 -4 6 -39t-35 -78q-103 -127 -293 -96q-94 14 -146 65q-105 103 -83 283q-52 -158 -165 -232q-58 -38 -142 -26q-266 38 -299 428q-19 179 10 305q8 35 18 45q12 11 51 23t81 13q109 3 106 -70q-6 -60 -6 -181z" />
    <glyph glyph-name="uacute" unicode="&#xfa;" 
d="M391 1161q-43 -1 -53 19t20 69q31 49 82 95q50 46 108 74q58 26 99 1q20 -18 16 -55t-48 -83q-45 -46 -113 -83t-111 -37zM285 614q0 -374 102 -368q46 0 102 110t83 217q28 107 28 111q2 25 39 44q85 44 165 12q40 -15 45 -52t3 -93t-5 -123q-8 -175 16 -264
q35 -130 136 -126q74 3 114 59q15 21 29 33t40 0q6 -4 6 -39t-35 -78q-103 -127 -293 -96q-94 14 -146 65q-105 103 -83 283q-52 -158 -165 -232q-58 -38 -142 -26q-266 38 -299 428q-19 179 10 305q8 35 18 45q12 11 51 23t81 13q109 3 106 -70q-6 -60 -6 -181z" />
    <glyph glyph-name="ucircumflex" unicode="&#xfb;" 
d="M475 1323q-29 -25 -49 -47q-64 -72 -127 -68q-49 0 -10 88q20 49 57 105q37 55 58 76q42 38 105 10q63 -27 106 -88q43 -60 69 -111t32 -94q7 -43 -20 -55t-64 16t-85 90q-47 62 -72 78zM285 614q0 -374 102 -368q46 0 102 110t83 217q28 107 28 111q2 25 39 44
q85 44 165 12q40 -15 45 -52t3 -93t-5 -123q-8 -175 16 -264q35 -130 136 -126q74 3 114 59q15 21 29 33t40 0q6 -4 6 -39t-35 -78q-103 -127 -293 -96q-94 14 -146 65q-105 103 -83 283q-52 -158 -165 -232q-58 -38 -142 -26q-266 38 -299 428q-19 179 10 305q8 35 18 45
q12 11 51 23t81 13q109 3 106 -70q-6 -60 -6 -181z" />
    <glyph glyph-name="udieresis" unicode="&#xfc;" horiz-adv-x="1019" 
d="M281 614q0 -374 102 -368q46 0 102 110t83 217q28 107 28 111q2 25 39 44q85 44 165 12q40 -15 45 -52t3 -93t-5 -123q-8 -175 16 -264q35 -130 136 -126q74 3 114 59q15 21 29 33t40 0q6 -4 6 -38t-35 -78q-102 -128 -293 -97q-93 14 -146 66q-104 100 -83 282
q-52 -158 -165 -232q-58 -38 -142 -26q-150 21 -228 157t-78 361t35 260q12 11 51 23t81 13q109 3 106 -70q-6 -60 -6 -181zM321 1391q42 0 68 -60q10 -14 48 -46t53 -56q16 -24 11 -57q-5 -34 -35 -52q-61 -38 -143 6t-98 132q-5 32 6 68q-2 -4 -13 -21q1 4 24 49
q37 37 79 37zM665 1322q-1 4 1 12t1 0q21 48 55 48t64 -24t44 -65q14 -39 -6 -81t-50 -44t-56 25q-50 51 -53 122v7z" />
    <glyph glyph-name="yacute" unicode="&#xfd;" horiz-adv-x="942" 
d="M289.5 1063q-29.5 0 -39.5 19t20.5 68.5t81.5 95.5t108.5 73t98.5 2q36 -32 4 -87t-70 -83q-37 -28 -70.5 -47t-68.5 -30t-64.5 -11zM292 319q-77 0 -132.5 40t-81 99.5t-26.5 129t11.5 128t35.5 96.5t46 36q41 -4 58.5 -33t23.5 -68.5t4 -85t-1 -84t10.5 -65.5t36.5 -30
t50 21.5t46.5 64.5t49.5 89.5t60 101.5t95 68q27 8 53 4q60 3 127.5 -142t117.5 -472q51 -327 -41 -565t-262.5 -340t-339.5 -55q-78 23 -138 87t-91 150t-21.5 183.5t73.5 183.5t152.5 136t169.5 71.5t136 19.5t53 -16q0 -16 -29.5 -35t-75.5 -48.5t-104.5 -75.5
t-116 -117.5t-55.5 -133t46 -91.5t124 -15.5t179 96.5q167 140 120 526q-20 172 -77 361q-67 -123 -138 -171.5t-148 -48.5z" />
    <glyph glyph-name="thorn" unicode="&#xfe;" horiz-adv-x="940" 
d="M562 668q-52 0 -97 -35t-72.5 -87t-41 -112.5t-16.5 -113t3 -87t16 -34.5q151 0 254 37.5t148 79t37 96.5q-18 76 -62.5 138t-80.5 90t-88 28zM307.5 -367q-42.5 -93 -149.5 -57q-25 68 -45.5 548.5t-20.5 600.5q0 121 -1 188.5t20 162.5t137 42q50 -53 60.5 -153.5
t14 -156.5t9.5 -95q180 66 285.5 72t175 -20t110.5 -97q33 -49 42 -135.5t-17.5 -174.5t-96 -158.5t-192.5 -86.5q-165 0 -236 -17.5t-71 -25.5q18 -69 18 -206.5t-42.5 -230.5z" />
    <glyph glyph-name="ydieresis" unicode="&#xff;" horiz-adv-x="942" 
d="M292 319q-77 0 -132.5 40t-81 99.5t-26.5 129t11.5 128t35.5 96.5t46 36q41 -4 58.5 -33t23.5 -68.5t4 -85t-1 -84t10.5 -65.5t36.5 -30t50 21.5t46.5 64.5t49.5 89.5t60 101.5t95 68q27 8 53 4q60 3 127.5 -142t117.5 -472q51 -327 -41 -565t-262.5 -340t-339.5 -55
q-78 23 -138 87t-91 150t-21.5 183.5t73.5 183.5t152.5 136t169.5 71.5t136 19.5t53 -16q0 -16 -29.5 -35t-75.5 -48.5t-104.5 -75.5t-116 -117.5t-55.5 -133t46 -91.5t124 -15.5t179 96.5q167 140 120 526q-20 172 -77 361q-67 -123 -138 -171.5t-148 -48.5zM244 1417
q35 0 57 -49q8 -12 24.5 -26.5t44.5 -41t23 -59.5q-6 -33 -41 -55.5t-103.5 12t-83.5 111.5q-5 25 3 52q-2 -5 -9 -14q1 3 19 39q31 31 66 31zM564 1359q0 4 2 11t1 1q18 36 46 38t52.5 -18.5t37.5 -54t-5 -68.5t-55 -36.5t-69 76.5q-10 25 -10 46v5z" />
    <glyph glyph-name="dotlessi" unicode="&#x131;" horiz-adv-x="665" 
d="M335 893q39 0 65 -24t17 -71t-15 -98q-14 -131 -12 -242q4 -243 83 -276q61 -25 101 0t84 80t73 48t-24 -123q-102 -221 -357 -171q-68 14 -108 66q-71 91 -97 211q-10 47 -21 53t-33 -12q-23 -18 -57 -26t-42 14t14 52t37 49q74 100 82 287q4 95 17 122q13 26 39 31
t70 17t84 13z" />
    <glyph glyph-name="Lslash" unicode="&#x141;" 
d="M393 257v-73q137 40 210 42t166 -23t138 -49t93 -38q48 -13 51 -46q-1 -12 -15 -20t-41 -5q-7 -13 -170 1t-225 15q-62 0 -184 -45q-26 -8 -50 -23t-55 1q-63 32 -161 115q16 134 21 336t7 255q-24 -10 -50 -24t-50 -22q-50 -16 -68 34q-16 49 107 157q31 28 59 46
q5 58 7 134q6 329 59 357q39 23 106 -44q27 -26 45 -54t17 -41q-8 -67 1 -131t5 -123q34 5 68 17q140 51 210 24q-24 -47 -223 -191q-43 -32 -61 -46q-17 -17 -17 -536z" />
    <glyph glyph-name="lslash" unicode="&#x142;" 
d="M578 1368q-49 14 -82 -32q-67 -93 -84 -281l6 41q50 23 99 67t71 94q23 50 16 78q-8 27 -26 33zM422 891v-62q225 84 266 33q22 -32 -157 -134q-50 -30 -101 -56q20 -234 97 -387t212 -109q94 31 185 139q51 58 68 39q7 -8 7 -26q-1 -18 -21 -70t-70 -114
q-127 -159 -312 -148q-260 43 -355 370q-28 93 -40 191q-15 -10 -25 -10q-107 -43 -145 -8q-14 12 -8 41q7 52 165 139q-10 208 14 387q5 37 5 45q27 167 150 269q157 134 289 71t77 -270q-39 -125 -175 -230q-52 -39 -90 -59l-34 -19q-2 -10 -2 -22z" />
    <glyph glyph-name="OE" unicode="&#x152;" horiz-adv-x="1714" 
d="M580 154q142 0 223 137q21 31 23.5 83.5t13.5 106.5q10 53 33.5 93t46 68t39 45.5t13.5 29.5t-27.5 31.5t-82.5 67.5t-76 121t-9 127t9 96t-29.5 81t-105.5 51q-122 37 -223 -73.5t-126.5 -273.5t-25.5 -214q23 -223 52.5 -316t60.5 -144.5t74 -84t117 -32.5zM889 1358
q126 132 321 104q66 0 135.5 -23.5t118.5 -60.5q33 -33 40 -65.5t-4 -54t-35.5 -22.5t-71.5 45t-102.5 61.5t-123 -8.5t-114 -139.5t-29.5 -225.5q19 -158 169 -158t184 -18.5t39 -56.5t-30.5 -55t-85 -31.5t-142.5 -50.5t-75 -243q18 -119 113.5 -168t226.5 -24
q55 10 106.5 37.5t92.5 51t70.5 34t44.5 -10.5q16 -12 -2.5 -56t-111 -133t-284.5 -103q-191 -14 -282.5 44t-119.5 89t-34 37q-6 0 -22.5 -18.5t-79.5 -62t-193 -55.5q-129 -12 -237.5 39.5t-188.5 145.5t-124 219t-38 258q12 236 77 387.5t196.5 270.5t372.5 89
q49 0 93 -19t70.5 -30.5t59.5 -19.5z" />
    <glyph glyph-name="oe" unicode="&#x153;" horiz-adv-x="1548" 
d="M1008 758q-63 -119 -64 -256q108 118 125 229q8 66 -12 72t-49 -45zM711 350q0 233 42 359q-13 54 -52 98q-146 170 -289 36q-84 -77 -109 -192q-31 -120 0 -310q21 -125 94 -188q37 -32 97 -33q60 -2 104 22q113 62 113 208zM798 813q127 239 341 155q75 -30 105 -94
q57 -123 -15 -284q-33 -74 -61 -110t-46 -61q-20 -25 -44 -51t-46 -50t-39 -34q-16 -10 -7 -34q20 -55 98 -104q78 -48 201 15q70 33 101 65t58 61q107 115 141 106q-3 -12 -35 -80q-31 -67 -45 -91t-25 -49q-12 -23 -32 -53q-125 -180 -383 -149q-144 17 -269 148
q-22 23 -24 18q-29 -57 -92 -93q-136 -78 -304 -27q-83 26 -152 92q-156 149 -152 450q0 133 83 258q98 153 246 195q70 23 173 11q103 -11 149 -42q66 -51 75 -168z" />
    <glyph glyph-name="Scaron" unicode="&#x160;" 
d="M586 1591q31 27 54.5 52.5t58 58t81.5 29.5q70 -5 -0.5 -98t-83.5 -111q-55 -84 -101 -91.5t-120 48.5t-124.5 157t0.5 122t101 -31t78.5 -85t55.5 -51zM826 1154q-40 13 -75 8t-95 -12t-175 -134q-77 -84 -89.5 -126t9 -75t71.5 -59.5t119 -56.5t142.5 -46t140 -47
t121 -90t88.5 -172q18 -59 -27.5 -122.5t-124.5 -117t-174 -88t-171 -34.5q-156 -2 -264.5 39.5t-172 95t-80.5 103.5t7 64t58 4.5t122.5 -39t233 -31.5t321.5 93q37 20 36 58.5t-33 79t-92 79.5t-140 61.5t-158 42t-141.5 51.5t-104.5 84t-49 142q-6 90 39 173t176.5 178.5
t392.5 52.5q162 -33 238 -87.5t35 -101.5q-23 -23 -49.5 -17.5t-60.5 20t-74 27.5z" />
    <glyph glyph-name="scaron" unicode="&#x161;" horiz-adv-x="755" 
d="M171 950q52 68 164 87t150 4t51 -37q13 -23 2.5 -32t-53 -29.5t-81.5 -64t-39 -147.5q-4 -128 190.5 -320.5t175.5 -324.5q-19 -109 -191 -157t-348 -8.5t-202 147.5q-39 143 8.5 217t107.5 106q60 33 75.5 6.5t-19.5 -86.5t33 -132.5t165 -76.5t152 38.5t17.5 92.5
t-224 200t-186.5 299q0 150 52 218zM373 1380q31 27 54.5 52.5t58 58t81.5 29.5q70 -5 -0.5 -98t-83.5 -111q-55 -84 -101 -91.5t-120 48.5t-124.5 157t0.5 122t101 -31t78.5 -85t55.5 -51z" />
    <glyph glyph-name="Ydieresis" unicode="&#x178;" horiz-adv-x="921" 
d="M154 1323q61 4 144 -111t95 -241q27 -203 99 -230q33 -12 69 11q155 332 164 524q2 37 40 34t81 -39t75 -102q33 -67 21 -149q-54 -385 -286 -695q-93 -126 -230 -227q-80 -60 -156 -80t-120 -9t-48 49q-2 38 64 94q165 136 278 337q47 84 74 166q-126 27 -247 132
q-60 55 -99 131t-76 144q-81 150 -45 219q21 38 103 42zM239 1743q44 0 72 -62q12 -16 49 -48q74 -65 70 -109q-10 -46 -41 -66q-60 -38 -147 9t-103 138q-6 37 9 79l-11 -22l-5 -9q1 4 24 51q39 39 83 39zM646 1658q0 -17 -4 -17q0 13 6 45q1 6 0 -2q22 46 58 48t66 -24
q30 -27 47 -69q15 -43 -5 -87t-52 -44t-60 27q-56 58 -56 123z" />
    <glyph glyph-name="Zcaron" unicode="&#x17d;" horiz-adv-x="1013" 
d="M1129 112q-288 -88 -641 -101q-110 -3 -202 16q-219 45 -255 129q-30 69 39 112q28 18 60 32q70 32 218 220q147 188 253 368q106 179 165 281q-47 5 -93 9t-124 13t-126 33q-49 25 -81 62t-46 71q-15 34 -2 51q13 18 99 -12q208 -71 416 -55q110 6 153 -1
q95 -16 146 -66q27 -27 -85 -221t-336 -511q-223 -317 -226 -325q214 -26 319 -30q104 -4 240 30q97 21 166 17q126 -6 117 -39t-174 -83zM713 1647q74 65 110 86q35 21 85 18t0 -87q-19 -34 -46 -69t-39 -53q-55 -84 -101 -91t-118 47t-128 176q-24 52 -28 98t26 57
q49 20 122 -62q30 -33 60 -67t57 -53z" />
    <glyph glyph-name="zcaron" unicode="&#x17e;" horiz-adv-x="911" 
d="M250 -660q61 7 130 154t89 336q6 74 0 135q-134 -152 -224 -324q-44 -85 -48 -160t11 -110t42 -31zM440 119q-53 153 -183 153q-83 0 -103 10t-26 44q-6 33 37 75q42 42 128 99t119 92q75 79 -2 151t-219 -36q-89 -68 -130 -80t-62 3t-22 50q0 72 77 161q77 90 206 105
q68 8 145 -16q138 -44 188 -138q37 -71 16 -156q-21 -84 -58 -130q-72 -91 -164 -144q132 0 203 -135q182 113 284 119t110 -7q9 -13 -10 -30t-117 -62q-98 -44 -191 -130q68 -246 8 -531q-30 -137 -96 -222q-125 -162 -295 -182q-76 -9 -121 5q-235 73 -119 442
q57 192 276 386q61 54 121 104zM330 1337q28 25 50 47q70 74 128 70q50 0 2 -90q-18 -35 -43 -70q-25 -36 -43 -64q-42 -65 -77 -70q-34 -5 -79 15t-75 59q-75 98 -104 208q-16 71 16 83q31 13 61 -9t84 -93q55 -70 80 -86z" />
    <glyph glyph-name="florin" unicode="&#x192;" 
d="M367 897q0 41 -5.5 98.5t-12 275t170.5 261.5q81 9 150 -8t102 -33t42 -34.5t-13.5 -39t-89.5 -39.5q-87 -18 -68 -266t24 -304t5 -81q0 -7 95.5 -1.5t159 0.5t70.5 -38q0 -44 -46 -81t-96 -42.5t-116.5 -12.5t-66.5 -17q0 -72 11 -367t-69 -418q-79 -129 -215.5 -172.5
t-281.5 76.5q-59 41 -71.5 99.5t-4.5 79t37 13.5q20 -14 37.5 -36.5t54.5 -51t119 10.5q52 25 88 182t27 323t-19 224q0 14 -37 11t-127.5 -10.5t-122.5 36.5q-39 34 -10.5 74t86.5 61q19 8 93.5 8t99.5 10q13 0 6.5 84t-6.5 125z" />
    <glyph glyph-name="circumflex" unicode="&#x2c6;" horiz-adv-x="800" 
d="M373 1284q-33 -41 -71 -95t-73 -74q-35 -21 -71 -25t-41 32q-8 70 28 154q69 161 95 198q28 36 58 46q54 18 165 -41q41 -21 97 -77q131 -132 165 -241q19 -57 -15 -80t-77 1t-89 63t-90 81t-81 58z" />
    <glyph glyph-name="caron" unicode="&#x2c7;" horiz-adv-x="882" 
d="M459 1290q39 33 67 63q95 99 176 95q88 -4 -57 -217q-33 -47 -59 -86q-60 -92 -117 -100t-146 58q-90 66 -161 237q-42 101 -35 148q8 46 33 58q59 22 153 -91q39 -46 76 -94t70 -71z" />
    <glyph glyph-name="breve" unicode="&#x2d8;" horiz-adv-x="815" 
d="M160 1492q64 -84 95 -113q71 -67 148 -14q39 29 76 63t77 63t91 23t63 -45q26 -80 -57 -185q-84 -105 -243 -127q-158 -23 -248 81q-46 52 -54 137q-13 149 17 145q14 -2 35 -28z" />
    <glyph glyph-name="dotaccent" unicode="&#x2d9;" 
d="M506 1538q59 0 99.5 -59t15.5 -104q-25 -46 -69 -76.5t-91 -36t-87 24t-49 91.5t11 86.5t52 38t66 19.5t52 16z" />
    <glyph glyph-name="ring" unicode="&#x2da;" horiz-adv-x="520" 
d="M326 1221q35 27 41 71.5t-8.5 79.5t-46 48.5t-70.5 -21.5q-27 -18 -31 -58.5t9 -76t41 -53t65 9.5zM100 1314.5q0 65.5 35 121.5q16 35 52 52t55 17q125 0 167 -72.5t44 -122.5t-21 -89q-18 -41 -54 -73t-107 -49t-136 97q-35 53 -35 118.5z" />
    <glyph glyph-name="ogonek" unicode="&#x2db;" horiz-adv-x="696" 
d="M156 -298q-30 82 -6 180t88 147t132 64q69 15 122 -1t53 -65q-5 -19 -101 -49q-96 -31 -131 -54q-74 -48 -67 -121q24 -133 189 -69q100 37 156 40q32 1 46 -28q6 -20 -13 -59q-18 -39 -64 -72q-117 -85 -275 -35q-98 41 -129 122z" />
    <glyph glyph-name="tilde" unicode="&#x2dc;" 
d="M391 1489q45 -23 75 -55t54 -61q24 -28 52 -43t72 0q75 26 96 118q8 36 14 62t22 26q20 -2 42 -25q46 -48 50 -138t-75 -156q-41 -35 -107 -51q-156 -39 -248 68q-29 34 -59 77q-31 41 -63 37t-64 -22t-66 -36q-33 -18 -63 -4q-10 20 5 66q35 107 139 145q54 21 124 -8z
" />
    <glyph glyph-name="hungarumlaut" unicode="&#x2dd;" horiz-adv-x="870" 
d="M45 1159q-34 49 38 189q15 31 21 47q58 105 122 133t159 -45q37 -29 19 -61t-58 -66q-41 -34 -91 -70q-50 -35 -82 -74t-80 -54t-48 1zM588 1483q37 26 124 0q34 -11 64 -25t56 -22q24 -8 31 -26t-43 -48t-86 -47q-36 -16 -42 -25q-34 -22 -64 -66q-77 -110 -127 -138
q-34 -17 -73 16q-22 14 -22 58t47 124q47 81 86 133t49 66z" />
    <glyph glyph-name="endash" unicode="&#x2013;" 
d="M648 743q102 0 239 -67q53 -32 39 -84q-14 -53 -70 -53q-117 -9 -238 -19t-235 -22q-63 -4 -107 10t-104 39q-49 33 -40 85t40 66q10 6 48 14q169 31 428 31z" />
    <glyph glyph-name="emdash" unicode="&#x2014;" 
d="M819 717q85 -21 174 -64q52 -31 38 -67q-13 -37 -68 -37q-119 -22 -307 -13q-187 9 -283 13t-172 -8q-63 -4 -107 10t-104 39q-48 32 -40 67t44 55q35 20 284 37q380 24 541 -32z" />
    <glyph glyph-name="quoteleft" unicode="&#x2018;" horiz-adv-x="587" 
d="M412 1526q11 -204 -71 -330q-34 -52 -73 -72q-38 -20 -68 -10q-52 18 -64 94q-12 77 15 144t66 102q76 68 156 80q33 4 39 -8z" />
    <glyph glyph-name="quoteright" unicode="&#x2019;" horiz-adv-x="559" 
d="M106 1161q-17 317 101 374q37 17 86 11q86 -21 64 -130q-9 -44 -31 -84t-39 -58q-30 -51 -101 -95t-80 -18z" />
    <glyph glyph-name="quotesinglbase" unicode="&#x201a;" horiz-adv-x="608" 
d="M252 268q55 0 100 -32.5t78 -45.5q0 -138 -84 -205t-138 -93t-87 -14.5t-42.5 70.5t54.5 182t119 138z" />
    <glyph glyph-name="quotedblleft" unicode="&#x201c;" horiz-adv-x="823" 
d="M88 1208q-45 57 -32 124q12 67 56 121t103 84t109 15q46 -11 10 -143t-113 -210q-77 -79 -133 9zM535 1139q-48 -3 -98 37q-23 16 -45 34t-52 29q-7 84 45 159t122 114q119 66 145 -24q22 -75 -22 -205q-43 -129 -95 -144z" />
    <glyph glyph-name="quotedblright" unicode="&#x201d;" horiz-adv-x="823" 
d="M184 1532q45 3 98 -41t87 -55q7 -165 -166 -262q-107 -60 -131 25q-20 73 19 192t93 141zM608 1464q43 -53 30 -116q-13 -62 -54 -114q-42 -52 -98 -82t-101 -15q-23 6 -24 46q-2 82 59 199t125 125q34 4 63 -43z" />
    <glyph glyph-name="quotedblbase" unicode="&#x201e;" horiz-adv-x="774" 
d="M223 311q52 0 105 -48q22 -19 46 -39t56 -34q0 -139 -131 -242q-37 -30 -91 -56t-90 -12q-34 16 -43 58q-19 92 37 225q57 133 111 148zM705 209q45 -63 27 -135t-67 -128q-50 -56 -117 -86t-118 -13t-4 155q48 139 135 224q87 84 144 -17z" />
    <glyph glyph-name="dagger" unicode="&#x2020;" horiz-adv-x="970" 
d="M565 1290q0 -123 -2 -220.5t17 -141.5q31 -2 140 14.5t182 14t32 -69t-96.5 -94t-108.5 -29.5t-97 -3t-38 -18q27 -463 -1 -597t-46 -140q-102 -42 -156 147t-43 607q-202 0 -303 26q-36 4 -29 47.5t35 66.5q27 24 63 32t73.5 10t76.5 1t70 3q14 4 14 149.5t8.5 236.5
t46.5 112q162 -31 162 -154z" />
    <glyph glyph-name="daggerdbl" unicode="&#x2021;" horiz-adv-x="989" 
d="M369 807q-214 0 -320 29q-42 4 -31.5 50.5t38.5 69.5t66 32t78 11t79.5 1t74.5 6q15 4 15 26v248q0 224 59 252q167 -30 169.5 -161.5t-1 -234t17.5 -151.5q45 -16 82 -17t88 -6t100.5 -13.5t94.5 -8.5q4 -45 -56.5 -86t-133.5 -43q-74 -2 -120 -3t-40 -17q2 -27 2 -75
t-3.5 -247t-13.5 -199l22 -2q237 -18 255 -33.5t-8 -23.5q-29 -8 -89.5 -35t-179.5 -47q-2 0 -5 -43t-22 -292t-46 -283q-127 7 -145.5 249.5t-18.5 345.5q0 10 -76.5 12.5t-120.5 7.5q-94 11 -135 44.5t27 80.5q68 48 290 48q5 0 5 30l1 119z" />
    <glyph glyph-name="bullet" unicode="&#x2022;" 
d="M594 852q75 0 125 -76.5t18 -129.5q-31 -54 -86 -92t-113.5 -45t-108.5 28.5t-64 132.5t53 125t109 36.5t67 20.5z" />
    <glyph glyph-name="ellipsis" unicode="&#x2026;" horiz-adv-x="1077" 
d="M219 209q61 0 117 -51t41 -106q-8 -29 -52 -58q-44 -28 -85 -12t-64 54t-24 84q-2 46 18 68t49 21zM678 49q-14 -29 -50 -46t-71 1q-66 34 -55 97q12 63 62 95t77 -3q2 -17 13 -35q10 -18 20 -34q24 -40 4 -75zM893 43q-47 29 -63 60q-15 32 36 71q46 29 113 -12
q27 -16 46 -44t-14 -60t-66 -30q-32 1 -52 15z" />
    <glyph glyph-name="perthousand" unicode="&#x2030;" horiz-adv-x="1558" 
d="M379 1346q88 -31 128 -99q79 -134 14 -313t-198 -229q-67 -25 -137 12q-155 71 -141 276q4 57 12 109q16 106 108 178t200 33q10 9 8 19t6 14zM961 911q-108 -158 -559 -540q-204 -176 -252 -225q-49 -50 -73 -51q-44 -2 -22 90q10 42 45 118t185 264q43 57 122 131
q79 75 119 142q39 67 144 172q195 195 270 211q0 -6 24 -64t24 -130q0 -73 -27 -118zM823 176q15 29 -68 88q-32 23 -63 41t-39 25q-23 -33 -23 -85t23 -93q39 -16 90 -10t80 34zM979 330q41 -50 26 -102q-28 -97 -156 -172t-210 -17q-53 37 -83 100t-33 136t27 126t94 71
t173 -32q3 -4 23 -14q110 -54 139 -96zM1421 279q8 69 -39 110t-122 17q-47 -15 -60 -91t8 -115q38 -74 105 -55q55 11 81 53t27 81zM1569 295q-6 -71 -47 -137q-42 -66 -100 -106t-129 -41t-138 61q-54 54 -74 187t37 190q25 29 80 31q56 2 112 -3q56 -4 100 -5t50 22
q33 -14 62 -58q58 -86 47 -141zM342 852l-8 -10q-20 -20 8 10zM349 860h-1q36 51 48 116q33 191 -58 244q-31 17 -77 7t-70 -53q-45 -81 -21 -212q25 -130 92 -151q38 -12 87 49z" />
    <glyph glyph-name="guilsinglleft" unicode="&#x2039;" horiz-adv-x="755" 
d="M550 185q-142 21 -280 122q-171 125 -177 267q-3 73 65 135q35 31 80 75q182 176 307 129q126 -57 -30 -202q-44 -41 -127 -106t-103 -85q23 -14 63 -36q188 -105 252 -169q10 -14 22 -31q46 -63 17 -85q-29 -23 -89 -14z" />
    <glyph glyph-name="guilsinglright" unicode="&#x203a;" horiz-adv-x="755" 
d="M191 366q65 80 109 130t79 85q35 36 41 44q-14 8 -51 26t-116 62t-111 84q-32 41 -26 71t55 55q109 59 301 -115q44 -40 71 -67q167 -167 -24 -339q-102 -90 -185 -136q-84 -47 -109 -67q-48 -39 -81 4q-13 16 -16 49q-2 34 63 114z" />
    <glyph glyph-name="fraction" unicode="&#x2044;" horiz-adv-x="1069" 
d="M248 80q-27 -19 -58 -19q-85 0 -88 112q-5 148 206 401q50 60 112 140t155 192q91 112 141 178t68 101q18 34 61 101t75 92q65 49 98 -26q75 -147 -107 -404q-104 -147 -182 -233t-113 -128t-127 -149t-161 -208q-68 -101 -80 -150z" />
    <glyph glyph-name="Euro" unicode="&#x20ac;" horiz-adv-x="1245" 
 />
    <glyph glyph-name="trademark" unicode="&#x2122;" horiz-adv-x="1382" 
d="M1087 1276q-29 -26 -39 -92t-16 -102q-21 -129 -133 -72q-65 38 -128 141q-26 41 -52 81q-27 40 -64 68q-31 -166 -7 -299q9 -49 32 -88q28 -33 16 -45t-40 -6t-60 28t-44 60q-29 86 -18 239q11 152 68 208q33 8 56 19t42 -8t48 -52q34 -47 74 -89t77 -87q31 144 118 206
q32 23 75 23q91 -21 188 -180q82 -132 93 -217q11 -86 -40 -163q-20 -32 -42 -46t-36 -6q-61 28 -108 233q-18 80 -33 150t-27 96zM510 1300q-133 -38 -133 -30l-1 -51q-5 -276 13 -367q4 -16 -8 -39q-13 -23 -33 -23t-44 32q-48 67 -73 423q-21 6 -84 11t-96 32
q-55 37 -34 64q42 52 228 54t259 -45q36 -24 6 -60v-1z" />
    <glyph glyph-name="minus" unicode="&#x2212;" 
d="M284 712q299 44 406 6q37 -13 111 -36t89 -52q15 -30 12 -52q-6 -46 -67 -59q-422 -91 -675 16q-51 25 -42 77t36 68q28 15 130 32z" />
    <glyph glyph-name="fi" unicode="&#xfb01;" horiz-adv-x="1353" 
d="M330 465q4 0 4 305.5t32 453.5q31 140 53.5 202t76.5 83q60 26 234 -18.5t233 -118.5q24 -38 24 -68.5t-36 -41.5q-36 -10 -66.5 5t-62 32.5t-63.5 25.5t-65 -14q-57 -66 -113 -409t-38 -437q239 39 322 86t97 103t36 97q22 42 20 44q42 18 102 -26t75 -59t15 -39
t-8 -49.5t-19.5 -50.5t-14.5 -43t-4 -56t2.5 -113.5t22.5 -169t50 -103.5q64 -26 3.5 -46t-76.5 -24t-56.5 13.5t-107 103t-52.5 318.5q-142 -69 -242 -98t-132.5 -39.5t-32.5 -20.5q0 -18 -1 -64.5t-2.5 -120t-13.5 -225.5t-26 -186q-14 -35 -28.5 -33t-29 17.5t-25.5 37
t-18 31.5q-19 56 -44 274t-25 248q-12 0 -124 -12t-153 21q-86 58 -34 108t168 63t143 13zM1294 1185q6 -38 -35 -69t-86 -21.5t-76.5 39t-37.5 68.5t33 67t85 18.5t78.5 -37t38.5 -65.5z" />
    <glyph glyph-name="fl" unicode="&#xfb02;" horiz-adv-x="1476" 
d="M944 907q160 189 212.5 339t-38.5 161q-85 13 -138 -239q-24 -116 -36 -261zM446 319q0 -18 -1 -64t-2.5 -126.5t-13 -226t-26.5 -179.5q-23 -56 -62.5 -30.5t-63.5 97.5t-42 358t-18 294q-12 0 -35.5 -1t-73 1t-83.5 29q-62 62 17 113t175 51q2 0 -8 227t29 426
q8 29 28.5 124t93.5 124q58 26 181.5 -19t181.5 -118q23 -31 24 -62.5t-36 -48.5q-18 -8 -35 4.5t-52 36.5t-85 -10q-58 -63 -73 -323.5t-22 -346.5q186 21 306 86q-7 142 18 301.5t70 337.5t288 178q119 -12 155 -102t19 -214t-92 -273.5t-225 -247.5q-25 -98 3 -221
t69 -205t77.5 -109.5t90.5 -33.5t125 40t117 99q47 53 63 60t24.5 -2t8.5 -27.5t-7 -34.5q-95 -250 -227.5 -284t-198.5 -31q-127 6 -251.5 129.5t-141.5 451.5q-203 -56 -289 -60v-168z" />
    </font>
</defs>
</svg>
